<svg width="1425" height="800" viewBox="0 0 1425 800" fill="none" xmlns="http://www.w3.org/2000/svg">
<ellipse cx="481.5" cy="510" rx="576.223" ry="407.343" transform="rotate(-20.1632 481.5 510)" fill="#D9D9D9" fill-opacity="0.21"/>
<g filter="url(#filter0_d_163_551)">
<path d="M946.824 772.798C946.824 776.446 946.335 779.606 945.358 782.277C944.381 784.948 943.012 787.294 941.253 789.313C939.494 791.333 937.442 793.092 935.097 794.591C932.751 796.089 930.21 797.49 927.474 798.793L920.926 787.945C923.402 786.642 925.292 785.339 926.595 784.036C927.963 782.798 928.94 781.528 929.526 780.225C930.178 778.987 930.536 777.782 930.601 776.609C930.732 775.371 930.797 774.166 930.797 772.993V710.84H946.824V772.798ZM984.188 727.942H999.629V753.448C999.629 757.357 999.89 760.615 1000.41 763.221C1000.93 765.827 1001.55 767.912 1002.27 769.475C1003.05 771.365 1003.96 772.83 1005 773.873L992.593 777.782C992.006 777.195 991.42 776.446 990.834 775.534C990.312 774.817 989.791 773.905 989.27 772.798C988.749 771.625 988.325 770.29 988 768.791C986.306 771.853 983.96 774.101 980.963 775.534C978.032 776.902 974.839 777.586 971.386 777.586C968.845 777.586 966.663 777.195 964.839 776.414C963.08 775.567 961.614 774.427 960.441 772.993C959.334 771.495 958.519 769.703 957.998 767.618C957.542 765.534 957.314 763.188 957.314 760.582V727.942H972.852V758.53C972.852 760.81 973.113 762.667 973.634 764.1C974.22 765.468 975.263 766.152 976.761 766.152C978.585 766.152 980.279 764.947 981.843 762.537C983.407 760.061 984.188 756.673 984.188 752.373V727.942ZM1063.99 777V746.51C1063.99 744.229 1063.8 742.405 1063.41 741.037C1063.02 739.604 1062.14 738.887 1060.77 738.887C1059.21 738.887 1057.74 740.027 1056.37 742.308C1055 744.523 1054.32 747.487 1054.32 751.201V777H1038.78V746.51C1038.78 744.229 1038.59 742.405 1038.2 741.037C1037.87 739.604 1036.99 738.887 1035.56 738.887C1033.93 738.887 1032.43 740.06 1031.06 742.405C1029.76 744.685 1029.11 747.78 1029.11 751.689V777H1013.67V751.591C1013.67 747.682 1013.37 744.457 1012.79 741.917C1012.27 739.311 1011.65 737.193 1010.93 735.564C1010.15 733.74 1009.27 732.274 1008.29 731.167L1020.7 727.258C1021.22 727.909 1021.78 728.659 1022.36 729.505C1022.89 730.222 1023.37 731.167 1023.83 732.34C1024.35 733.447 1024.81 734.718 1025.2 736.151C1026.76 733.089 1028.91 730.841 1031.65 729.408C1034.45 727.974 1037.54 727.258 1040.93 727.258C1043.8 727.258 1046.11 727.844 1047.87 729.017C1049.69 730.124 1051.16 731.753 1052.27 733.903C1053.96 731.558 1055.98 729.864 1058.33 728.821C1060.67 727.779 1063.28 727.258 1066.14 727.258C1068.69 727.258 1070.8 727.681 1072.5 728.528C1074.19 729.31 1075.53 730.45 1076.5 731.949C1077.55 733.382 1078.3 735.174 1078.75 737.324C1079.21 739.408 1079.44 741.721 1079.44 744.262V777H1063.99ZM1091.64 798.597V751.591C1091.64 747.682 1091.34 744.457 1090.76 741.917C1090.24 739.311 1089.62 737.193 1088.9 735.564C1088.12 733.74 1087.24 732.274 1086.26 731.167L1098.67 727.258C1099.45 728.04 1100.17 728.984 1100.82 730.092C1101.34 731.004 1101.87 732.177 1102.39 733.61C1102.91 734.978 1103.3 736.574 1103.56 738.398C1104.8 734.685 1106.49 731.916 1108.64 730.092C1110.86 728.202 1113.72 727.258 1117.24 727.258C1120.3 727.258 1122.97 727.844 1125.25 729.017C1127.6 730.19 1129.52 731.851 1131.02 734.001C1132.58 736.086 1133.72 738.627 1134.44 741.623C1135.22 744.62 1135.61 747.976 1135.61 751.689C1135.61 755.338 1135.03 758.758 1133.85 761.95C1132.68 765.078 1131.02 767.814 1128.87 770.159C1126.79 772.439 1124.31 774.264 1121.44 775.632C1118.58 776.935 1115.48 777.586 1112.16 777.586C1110.33 777.586 1108.64 777.391 1107.08 777V795.959L1091.64 798.597ZM1114.21 738.594C1113.23 738.594 1112.29 739.017 1111.38 739.864C1110.53 740.646 1109.78 741.721 1109.13 743.089C1108.48 744.392 1107.96 745.956 1107.57 747.78C1107.24 749.539 1107.08 751.396 1107.08 753.35V765.566C1107.53 765.696 1108.15 765.859 1108.93 766.055C1109.72 766.185 1110.43 766.25 1111.08 766.25C1112.65 766.25 1113.95 765.924 1114.99 765.273C1116.04 764.556 1116.85 763.612 1117.44 762.439C1118.09 761.201 1118.54 759.768 1118.8 758.139C1119.06 756.445 1119.2 754.621 1119.2 752.666C1119.2 750.842 1119.16 749.083 1119.1 747.389C1119.03 745.695 1118.8 744.197 1118.41 742.894C1118.09 741.591 1117.6 740.548 1116.95 739.767C1116.3 738.985 1115.38 738.594 1114.21 738.594Z" fill="black"/>
<path d="M1189.24 709.96C1191.58 709.96 1193.83 710.156 1195.98 710.547C1198.19 710.938 1200.25 711.426 1202.14 712.013C1204.03 712.599 1205.72 713.283 1207.22 714.065C1208.78 714.782 1210.12 715.531 1211.22 716.313L1205.56 727.062C1204.77 726.671 1203.83 726.183 1202.72 725.596C1201.61 724.945 1200.41 724.326 1199.11 723.74C1197.87 723.153 1196.57 722.665 1195.2 722.274C1193.89 721.883 1192.62 721.687 1191.39 721.687C1189.11 721.687 1187.41 722.176 1186.3 723.153C1185.2 724.065 1184.64 725.238 1184.64 726.671C1184.71 727.779 1184.97 728.756 1185.42 729.603C1185.88 730.45 1186.56 731.297 1187.48 732.144C1188.39 732.926 1189.56 733.708 1190.99 734.489C1192.43 735.271 1194.19 736.086 1196.27 736.933C1198.88 738.04 1201.16 739.18 1203.11 740.353C1205.07 741.526 1206.66 742.861 1207.9 744.36C1209.2 745.858 1210.18 747.552 1210.83 749.441C1211.48 751.331 1211.81 753.513 1211.81 755.989C1211.81 758.986 1211.26 761.82 1210.15 764.491C1209.11 767.097 1207.58 769.377 1205.56 771.332C1203.54 773.286 1201.09 774.817 1198.23 775.925C1195.36 777.033 1192.14 777.586 1188.55 777.586C1186.01 777.586 1183.57 777.358 1181.22 776.902C1178.94 776.446 1176.82 775.86 1174.87 775.143C1172.92 774.427 1171.12 773.677 1169.5 772.896C1167.87 772.049 1166.47 771.267 1165.29 770.55L1170.57 759.019C1171.03 759.344 1171.87 759.898 1173.11 760.68C1174.35 761.397 1175.75 762.146 1177.31 762.928C1178.88 763.644 1180.47 764.296 1182.1 764.882C1183.73 765.468 1185.2 765.762 1186.5 765.762C1189.24 765.762 1191.22 765.143 1192.46 763.905C1193.76 762.602 1194.42 760.778 1194.42 758.432C1194.42 756.087 1193.6 754.328 1191.97 753.155C1190.41 751.917 1188.16 750.712 1185.23 749.539C1182.36 748.366 1179.82 747.129 1177.61 745.826C1175.39 744.523 1173.5 743.057 1171.94 741.428C1170.44 739.799 1169.27 737.975 1168.42 735.955C1167.64 733.936 1167.25 731.59 1167.25 728.919C1167.25 725.987 1167.83 723.381 1169.01 721.101C1170.24 718.756 1171.87 716.769 1173.89 715.14C1175.91 713.446 1178.23 712.176 1180.83 711.329C1183.5 710.416 1186.3 709.96 1189.24 709.96ZM1212.6 728.333H1220.61L1222.28 718.267L1235.66 715.335V728.333H1247.2L1245.34 739.669H1235.66V761.462C1235.66 764.328 1237.16 765.762 1240.16 765.762C1241.79 765.762 1243.35 765.599 1244.85 765.273C1245.63 765.078 1246.41 764.882 1247.2 764.687L1249.83 775.045C1248.53 775.502 1246.71 776.023 1244.36 776.609C1242.08 777.13 1239.28 777.391 1235.96 777.391C1231.07 777.391 1227.23 776.381 1224.43 774.361C1221.69 772.342 1220.32 768.921 1220.32 764.1V739.669H1212.6V728.333ZM1295.08 753.448C1295.08 757.357 1295.34 760.615 1295.86 763.221C1296.38 765.827 1297 767.912 1297.72 769.475C1298.5 771.365 1299.41 772.83 1300.45 773.873L1288.04 777.782C1287.32 777.13 1286.67 776.316 1286.09 775.339C1285.57 774.492 1285.04 773.482 1284.52 772.309C1284.07 771.071 1283.68 769.638 1283.35 768.009C1282.24 771.071 1280.61 773.449 1278.46 775.143C1276.31 776.772 1273.48 777.586 1269.96 777.586C1266.77 777.586 1263.97 777 1261.56 775.827C1259.21 774.655 1257.26 773.026 1255.69 770.941C1254.13 768.791 1252.96 766.218 1252.18 763.221C1251.46 760.224 1251.1 756.901 1251.1 753.253C1251.1 749.539 1251.69 746.086 1252.86 742.894C1254.1 739.701 1255.79 736.965 1257.94 734.685C1260.09 732.34 1262.66 730.515 1265.66 729.212C1268.66 727.909 1271.98 727.258 1275.63 727.258C1277.65 727.258 1279.8 727.421 1282.08 727.746C1284.36 728.007 1286.44 728.333 1288.33 728.724C1290.22 729.049 1291.79 729.375 1293.02 729.701C1294.33 729.962 1295.01 730.092 1295.08 730.092V753.448ZM1272.5 766.25C1273.48 766.25 1274.39 765.827 1275.24 764.98C1276.15 764.133 1276.93 762.993 1277.58 761.559C1278.24 760.126 1278.72 758.497 1279.05 756.673C1279.44 754.784 1279.64 752.797 1279.64 750.712V739.376C1279.18 739.18 1278.53 739.017 1277.68 738.887C1276.9 738.692 1276.22 738.594 1275.63 738.594C1274.07 738.594 1272.76 738.952 1271.72 739.669C1270.68 740.32 1269.83 741.265 1269.18 742.503C1268.59 743.676 1268.17 745.109 1267.91 746.803C1267.65 748.497 1267.52 750.321 1267.52 752.275C1267.52 754.1 1267.55 755.859 1267.62 757.553C1267.68 759.181 1267.88 760.647 1268.2 761.95C1268.59 763.253 1269.11 764.296 1269.77 765.078C1270.42 765.859 1271.33 766.25 1272.5 766.25ZM1329.71 742.014C1329 742.014 1328.21 742.21 1327.37 742.601C1326.52 742.992 1325.71 743.611 1324.92 744.457C1324.14 745.239 1323.49 746.282 1322.97 747.585C1322.45 748.823 1322.19 750.321 1322.19 752.08V777H1306.75V751.591C1306.75 747.682 1306.45 744.457 1305.87 741.917C1305.35 739.311 1304.73 737.193 1304.01 735.564C1303.23 733.74 1302.35 732.274 1301.37 731.167L1313.78 727.258C1314.3 727.909 1314.86 728.659 1315.44 729.505C1315.9 730.222 1316.39 731.134 1316.91 732.242C1317.43 733.349 1317.85 734.62 1318.18 736.053C1319.81 732.926 1321.73 730.678 1323.95 729.31C1326.23 727.942 1328.9 727.258 1331.96 727.258C1333.33 727.258 1334.53 727.388 1335.58 727.649C1336.68 727.844 1337.6 728.072 1338.31 728.333L1334.31 743.089C1333.85 742.829 1333.23 742.601 1332.45 742.405C1331.73 742.145 1330.82 742.014 1329.71 742.014ZM1340.58 728.333H1348.59L1350.25 718.267L1363.64 715.335V728.333H1375.17L1373.32 739.669H1363.64V761.462C1363.64 764.328 1365.14 765.762 1368.14 765.762C1369.77 765.762 1371.33 765.599 1372.83 765.273C1373.61 765.078 1374.39 764.882 1375.17 764.687L1377.81 775.045C1376.51 775.502 1374.69 776.023 1372.34 776.609C1370.06 777.13 1367.26 777.391 1363.94 777.391C1359.05 777.391 1355.21 776.381 1352.4 774.361C1349.67 772.342 1348.3 768.921 1348.3 764.1V739.669H1340.58V728.333Z" fill="#FF0909"/>
</g>
<rect x="83.0001" y="30" width="413.765" height="44.253" rx="3.68775" fill="#686552" fill-opacity="0.41"/>
<g filter="url(#filter1_d_163_551)">
<path d="M428.173 61.3459C428.173 63.3826 429.824 65.0337 431.861 65.0337H482.014C484.051 65.0337 485.702 63.3826 485.702 61.3459V40.3258C485.702 38.2891 484.051 36.638 482.014 36.638H431.861C429.824 36.638 428.173 38.2891 428.173 40.3258V61.3459Z" fill="#8E8168"/>
</g>
<circle cx="4.24091" cy="4.24091" r="4.24091" transform="matrix(1 0 0 -1 472.058 49.1763)" fill="#4F4F4F"/>
<circle cx="2.98434" cy="2.98434" r="2.98434" transform="matrix(1 0 0 -1 473.314 47.9197)" fill="black"/>
<circle cx="2.04192" cy="2.04192" r="2.04192" transform="matrix(1 0 0 -1 474.257 46.9773)" fill="#464646"/>
<g filter="url(#filter2_d_163_551)">
<path d="M92.5883 61.3459C92.5883 63.3826 94.2393 65.0337 96.276 65.0337H146.429C148.466 65.0337 150.117 63.3826 150.117 61.3459V40.3258C150.117 38.2891 148.466 36.638 146.429 36.638H96.276C94.2393 36.638 92.5883 38.2891 92.5883 40.3258V61.3459Z" fill="#8E8168"/>
</g>
<g filter="url(#filter3_d_163_551)">
<path d="M159.705 61.3459C159.705 63.3826 161.356 65.0337 163.393 65.0337H213.546C215.583 65.0337 217.234 63.3826 217.234 61.3459V40.3258C217.234 38.2891 215.583 36.638 213.546 36.638H163.393C161.356 36.638 159.705 38.2891 159.705 40.3258V61.3459Z" fill="#8E8168"/>
</g>
<g filter="url(#filter4_d_163_551)">
<path d="M226.822 61.3459C226.822 63.3826 228.473 65.0337 230.51 65.0337H280.663C282.7 65.0337 284.351 63.3826 284.351 61.3459V40.3258C284.351 38.2891 282.7 36.638 280.663 36.638H230.51C228.473 36.638 226.822 38.2891 226.822 40.3258V61.3459Z" fill="#8E8168"/>
</g>
<g filter="url(#filter5_d_163_551)">
<path d="M293.939 61.3459C293.939 63.3826 295.59 65.0337 297.627 65.0337H347.78C349.817 65.0337 351.468 63.3826 351.468 61.3459V40.3258C351.468 38.2891 349.817 36.638 347.78 36.638H297.627C295.59 36.638 293.939 38.2891 293.939 40.3258V61.3459Z" fill="#8E8168"/>
</g>
<g filter="url(#filter6_d_163_551)">
<path d="M361.056 61.3459C361.056 63.3826 362.707 65.0337 364.744 65.0337H414.897C416.934 65.0337 418.585 63.3826 418.585 61.3459V40.3258C418.585 38.2891 416.934 36.638 414.897 36.638H364.744C362.707 36.638 361.056 38.2891 361.056 40.3258V61.3459Z" fill="#8E8168"/>
</g>
<rect width="31.3459" height="6.63795" transform="matrix(1 0 0 -1 138.685 59.502)" fill="#292929"/>
<circle cx="4.97846" cy="4.97846" r="4.97846" transform="matrix(1 0 0 -1 135.735 60.9771)" fill="#4F4F4F"/>
<circle cx="3.50336" cy="3.50336" r="3.50336" transform="matrix(1 0 0 -1 137.21 59.502)" fill="black"/>
<circle cx="4.97846" cy="4.97846" r="4.97846" transform="matrix(1 0 0 -1 164.499 60.9771)" fill="#4F4F4F"/>
<circle cx="3.50336" cy="3.50336" r="3.50336" transform="matrix(1 0 0 -1 165.974 59.502)" fill="black"/>
<rect width="31.3459" height="6.63795" transform="matrix(1 0 0 -1 205.433 49.9138)" fill="#292929"/>
<circle cx="4.97846" cy="4.97846" r="4.97846" transform="matrix(1 0 0 -1 202.483 51.3889)" fill="#4F4F4F"/>
<circle cx="3.50336" cy="3.50336" r="3.50336" transform="matrix(1 0 0 -1 203.958 49.9138)" fill="black"/>
<circle cx="4.97846" cy="4.97846" r="4.97846" transform="matrix(1 0 0 -1 231.248 51.3889)" fill="#4F4F4F"/>
<circle cx="3.50336" cy="3.50336" r="3.50336" transform="matrix(1 0 0 -1 232.723 49.9138)" fill="black"/>
<rect width="31.3459" height="6.63795" transform="matrix(1 0 0 -1 272.182 59.502)" fill="#292929"/>
<circle cx="4.97846" cy="4.97846" r="4.97846" transform="matrix(1 0 0 -1 269.231 60.9771)" fill="#4F4F4F"/>
<circle cx="3.50336" cy="3.50336" r="3.50336" transform="matrix(1 0 0 -1 270.706 59.502)" fill="black"/>
<circle cx="4.97846" cy="4.97846" r="4.97846" transform="matrix(1 0 0 -1 297.996 60.9771)" fill="#4F4F4F"/>
<circle cx="3.50336" cy="3.50336" r="3.50336" transform="matrix(1 0 0 -1 299.471 59.502)" fill="black"/>
<rect width="31.3459" height="6.63795" transform="matrix(1 0 0 -1 338.93 50.2827)" fill="#292929"/>
<circle cx="4.97846" cy="4.97846" r="4.97846" transform="matrix(1 0 0 -1 335.98 51.7578)" fill="#4F4F4F"/>
<circle cx="3.50336" cy="3.50336" r="3.50336" transform="matrix(1 0 0 -1 337.455 50.2827)" fill="black"/>
<circle cx="4.97846" cy="4.97846" r="4.97846" transform="matrix(1 0 0 -1 364.744 51.7578)" fill="#4F4F4F"/>
<circle cx="3.50336" cy="3.50336" r="3.50336" transform="matrix(1 0 0 -1 366.219 50.2827)" fill="black"/>
<rect width="31.3459" height="6.63795" transform="matrix(1 0 0 -1 405.678 59.502)" fill="#292929"/>
<circle cx="4.97846" cy="4.97846" r="4.97846" transform="matrix(1 0 0 -1 402.728 60.9771)" fill="#4F4F4F"/>
<circle cx="3.50336" cy="3.50336" r="3.50336" transform="matrix(1 0 0 -1 404.203 59.502)" fill="black"/>
<circle cx="4.97846" cy="4.97846" r="4.97846" transform="matrix(1 0 0 -1 431.492 60.9771)" fill="#4F4F4F"/>
<circle cx="3.50336" cy="3.50336" r="3.50336" transform="matrix(1 0 0 -1 432.967 59.502)" fill="black"/>
<circle cx="4.24091" cy="4.24091" r="4.24091" transform="matrix(1 0 0 -1 95.9072 49.1763)" fill="#4F4F4F"/>
<circle cx="2.98434" cy="2.98434" r="2.98434" transform="matrix(1 0 0 -1 97.1638 47.9197)" fill="black"/>
<circle cx="2.04192" cy="2.04192" r="2.04192" transform="matrix(1 0 0 -1 98.1062 46.9773)" fill="#464646"/>
<path d="M1398 690V42.0002H519.5" stroke="#A70101" stroke-width="4"/>
<path fill-rule="evenodd" clip-rule="evenodd" d="M1400.18 689.67C1395.93 698.051 1392.01 705.808 1387.76 714.189C1388.68 714.637 1389.45 715.258 1390.17 716.254C1400.04 711.736 1409.8 708.165 1419.67 703.646C1420.59 704.65 1421 705.477 1421.17 706.633C1421.26 707.131 1421.31 707.411 1420.79 707.532C1420.39 707.617 1420.01 707.565 1419.74 707.416C1419.31 707.183 1418.96 707.449 1418.78 707.602C1411.58 711.756 1404.37 716.207 1397.12 720.341C1396.49 720.854 1396.26 721.382 1396.21 722.015C1396.26 724.158 1394.62 725.688 1392.52 724.545C1391.31 723.889 1390.14 724.007 1388.98 724.74C1385.93 727.669 1382.81 730.616 1379.76 733.545C1378.74 733.093 1377.73 732.444 1376.53 731.59C1378.89 728.736 1381.14 725.522 1383.13 722.517C1382.46 721.7 1381.96 721.227 1381.48 721.012C1378.12 722.82 1373.76 725.744 1370.4 727.552C1369.71 726.874 1369.09 725.98 1368.83 724.781C1371.91 721.813 1376.32 718.257 1379.27 714.868C1379.78 714.291 1379.78 713.28 1379.31 712.47C1378.39 710.912 1378.73 709.277 1381.24 709.483C1382.15 709.574 1383.07 709.268 1384.2 707.661C1388.31 701.576 1392.55 695.456 1396.66 689.371C1396.55 689.208 1396.42 689.085 1396.36 688.904C1396.27 688.703 1396.36 688.448 1396.7 688.182C1396.91 687.991 1396.99 688.033 1397.28 688.044C1398.47 688.184 1399.41 688.494 1400.16 689.055C1400.39 689.38 1400.35 689.359 1400.18 689.67Z" fill="#DE131B" stroke="black" stroke-width="0.184387" stroke-miterlimit="2.6131"/>
<path fill-rule="evenodd" clip-rule="evenodd" d="M1399.24 690.57C1394.99 698.95 1390.69 707.408 1386.43 715.789C1387.35 716.237 1388.08 716.837 1388.8 717.834C1398.69 713.375 1408.82 709.043 1418.71 704.585C1419.64 705.549 1420.05 706.376 1420.23 707.532C1420.3 707.971 1420.42 708.293 1419.96 708.396C1419.54 708.52 1419.11 708.485 1418.76 708.295C1418.33 708.062 1417.98 708.328 1417.8 708.48C1410.6 712.634 1403.38 717.086 1396.14 721.219C1395.51 721.733 1395.27 722.26 1395.23 722.893C1395.28 725.036 1393.64 726.566 1391.54 725.423C1390.33 724.767 1389.16 724.885 1388 725.619C1384.94 728.548 1381.83 731.494 1378.77 734.423C1377.76 733.972 1376.59 733.238 1375.37 732.422C1377.73 729.569 1380.2 726.322 1382.23 723.338C1381.41 722.795 1380.98 722.304 1380.64 721.816C1377.28 723.624 1373.74 725.783 1370.34 727.569C1369.65 726.891 1369.03 725.997 1368.77 724.799C1371.85 721.831 1375.33 719.135 1378.26 715.785C1378.78 715.208 1378.78 714.197 1378.31 713.388C1377.39 711.829 1377.72 710.195 1380.23 710.4C1381.14 710.491 1382.07 710.185 1383.19 708.578C1387.31 702.493 1391.54 696.373 1395.66 690.288C1395.36 689.921 1395.11 689.634 1395.66 689.078C1395.89 688.848 1395.93 688.869 1396.26 688.901C1397.45 689.041 1398.39 689.351 1399.18 689.933C1399.47 690.241 1399.37 690.237 1399.24 690.57Z" fill="#E30613" stroke="black" stroke-width="0.184387" stroke-miterlimit="2.6131"/>
<path fill-rule="evenodd" clip-rule="evenodd" d="M1386.71 715.937C1384.18 714.561 1381.18 715.152 1380.04 717.254C1378.9 719.357 1380.03 722.192 1382.56 723.568C1385.09 724.944 1388.08 724.353 1389.23 722.25C1390.33 720.127 1389.24 717.313 1386.71 715.937Z" fill="#E63312" stroke="black" stroke-width="0.184387" stroke-miterlimit="2.6131"/>
<path fill-rule="evenodd" clip-rule="evenodd" d="M1386.43 716.443C1384.13 715.194 1381.4 715.775 1380.34 717.721C1379.28 719.668 1380.28 722.28 1382.58 723.529C1384.88 724.778 1387.61 724.198 1388.67 722.251C1389.73 720.305 1388.73 717.692 1386.43 716.443Z" fill="#E30613" stroke="black" stroke-width="0.184387" stroke-miterlimit="2.6131"/>
<path fill-rule="evenodd" clip-rule="evenodd" d="M1384.57 719.215C1384.03 718.919 1383.41 719.036 1383.15 719.503C1382.9 719.97 1383.14 720.554 1383.68 720.85C1384.23 721.146 1384.85 721.029 1385.1 720.562C1385.35 720.095 1385.12 719.511 1384.57 719.215Z" fill="#D8161E" stroke="black" stroke-width="0.184387" stroke-miterlimit="2.6131"/>
<path fill-rule="evenodd" clip-rule="evenodd" d="M1382.21 723.377C1380.1 726.418 1377.79 729.452 1375.27 732.419C1375.24 732.101 1375.28 731.765 1375.31 731.429C1377.49 728.628 1379.64 725.867 1381.8 723.106C1381.96 723.19 1382.11 723.275 1382.21 723.377Z" fill="#DC2311" stroke="black" stroke-width="0.184387" stroke-miterlimit="2.6131" stroke-linecap="round" stroke-linejoin="round"/>
<path fill-rule="evenodd" clip-rule="evenodd" d="M1396.87 688.069C1398.37 688.18 1399.57 688.578 1400.35 689.359C1400.04 689.646 1399.74 689.933 1399.43 690.219C1398.68 689.559 1397.68 689.168 1396.54 689.049C1396.3 689.021 1396.1 689.014 1395.86 688.986C1396.13 688.678 1396.46 688.352 1396.87 688.069Z" fill="#DC2311" stroke="black" stroke-width="0.184387" stroke-miterlimit="2.6131"/>
<path fill-rule="evenodd" clip-rule="evenodd" d="M1421.19 707.248C1421.33 706.261 1420.67 704.593 1419.63 703.625C1419.34 703.972 1419 704.238 1418.73 704.546C1419.48 705.206 1420.02 706.256 1420.23 707.434C1420.27 707.653 1420.36 707.755 1420.25 708.247C1420.53 707.999 1420.96 707.677 1421.19 707.248Z" fill="#DC2311" stroke="black" stroke-width="0.184387" stroke-miterlimit="2.6131"/>
<path d="M1389.91 716.722C1389.04 715.443 1388.25 714.761 1387.31 714.55M1389.58 717.048C1388.72 715.768 1388.04 715.15 1387.12 715M1389.16 717.37C1388.29 716.091 1387.83 715.639 1386.92 715.449" stroke="black" stroke-width="0.184387" stroke-miterlimit="2.6131"/>
<path fill-rule="evenodd" clip-rule="evenodd" d="M1377.31 729.792L1375.42 732.146L1375.45 731.255L1377.23 729.194L1377.31 729.792Z" fill="#C1994B"/>
<path fill-rule="evenodd" clip-rule="evenodd" d="M1374.83 731.571L1375.14 731.74L1375.49 731.931L1375.48 731.574L1375.47 731.216L1375.13 731.383L1374.83 731.571Z" fill="#D7B46A"/>
<path fill-rule="evenodd" clip-rule="evenodd" d="M1374.78 731.748L1375.13 731.938L1375.44 732.108L1375.44 731.75L1375.47 731.414L1375.12 731.581L1374.78 731.748Z" fill="#D7B46A"/>
<path fill-rule="evenodd" clip-rule="evenodd" d="M1374.79 732.006L1375.3 732.182L1375.42 732.146L1375.45 732.008L1375.48 731.672L1375.13 731.839L1374.79 732.006Z" fill="#D7B46A"/>
<path fill-rule="evenodd" clip-rule="evenodd" d="M1376.72 729.474L1377.02 729.584L1377.35 729.714L1377.28 729.375L1377.23 729.095L1376.99 729.265L1376.72 729.474Z" fill="#D7B46A"/>
<path fill-rule="evenodd" clip-rule="evenodd" d="M1376.72 729.673L1377.01 729.782L1377.32 729.852L1377.28 729.573L1377.25 729.254L1376.98 729.463L1376.72 729.673Z" fill="#D7B46A"/>
<path fill-rule="evenodd" clip-rule="evenodd" d="M1376.81 729.874L1377.24 730.008L1377.34 729.912L1377.35 729.813L1377.28 729.474L1377.05 729.704L1376.81 729.874Z" fill="#D7B46A"/>
<path fill-rule="evenodd" clip-rule="evenodd" d="M1380.61 721.855C1377.34 723.606 1373.59 725.5 1370.36 727.63C1370.7 727.661 1370.78 727.604 1371.12 727.636C1374.13 725.796 1377.83 723.921 1380.84 722.081C1380.77 721.94 1380.69 721.996 1380.61 721.855Z" fill="#DC2311" stroke="black" stroke-width="0.184387" stroke-miterlimit="2.6131" stroke-linecap="round" stroke-linejoin="round"/>
<path fill-rule="evenodd" clip-rule="evenodd" d="M1372.96 726.014L1370.55 727.477L1371.36 727.565L1373.66 726.197L1372.96 726.014Z" fill="#C1994B"/>
<path fill-rule="evenodd" clip-rule="evenodd" d="M1373.23 726.618L1373.14 726.317L1373.11 725.999L1373.41 726.108L1373.66 726.197L1373.44 726.427L1373.23 726.618Z" fill="#D7B46A"/>
<path fill-rule="evenodd" clip-rule="evenodd" d="M1373.09 726.593L1373.04 726.314L1372.98 725.975L1373.27 726.084L1373.56 726.193L1373.3 726.402L1373.09 726.593Z" fill="#D7B46A"/>
<path fill-rule="evenodd" clip-rule="evenodd" d="M1372.9 726.487L1372.87 726.07L1372.96 726.013L1373.05 726.017L1373.31 726.105L1373.1 726.296L1372.9 726.487Z" fill="#D7B46A"/>
<path fill-rule="evenodd" clip-rule="evenodd" d="M1370.89 727.965L1370.81 727.725L1370.76 727.445L1371.04 727.494L1371.36 727.565L1371.11 727.735L1370.89 727.965Z" fill="#D7B46A"/>
<path fill-rule="evenodd" clip-rule="evenodd" d="M1370.73 727.979L1370.68 727.7L1370.63 727.421L1370.9 727.47L1371.22 727.54L1370.99 727.77L1370.73 727.979Z" fill="#D7B46A"/>
<path fill-rule="evenodd" clip-rule="evenodd" d="M1370.51 727.912L1370.49 727.495L1370.57 727.438L1370.69 727.403L1371 727.473L1370.78 727.703L1370.51 727.912Z" fill="#D7B46A"/>
<path fill-rule="evenodd" clip-rule="evenodd" d="M522.476 43.8093C513.17 45.1229 504.569 46.3574 495.262 47.6711C495.42 48.679 495.353 49.6676 494.948 50.8279C504.307 56.3311 512.825 62.2856 522.184 67.7888C521.887 69.1154 521.443 69.9234 520.597 70.732C520.236 71.0848 520.035 71.2857 519.638 70.9289C519.34 70.6504 519.168 70.3129 519.133 70.0047C519.079 69.5203 518.663 69.3887 518.432 69.3254C510.901 65.8018 503.121 62.44 495.585 58.8723C494.802 58.6482 494.234 58.7566 493.691 59.0852C491.961 60.35 489.768 59.883 489.5 57.505C489.347 56.1399 488.578 55.2453 487.314 54.7184C483.163 53.8918 478.963 53.0261 474.813 52.1995C474.601 51.1085 474.555 49.9096 474.568 48.4366C478.258 48.7352 482.183 48.74 485.785 48.6473C486.072 47.6339 486.174 46.9536 486.07 46.4301C482.667 44.7167 477.771 42.8145 474.368 41.1011C474.528 40.1467 474.903 39.1234 475.739 38.2268C479.934 39.0484 485.373 40.6221 489.842 41.1009C490.61 41.1929 491.436 40.6095 491.832 39.7623C492.583 38.1171 494.114 37.4545 495.384 39.6305C495.831 40.4276 496.609 41.009 498.572 41.0114C505.917 40.8992 513.36 40.8652 520.706 40.753C520.774 40.5669 520.798 40.3858 520.915 40.2389C521.028 40.0479 521.287 39.9741 521.703 40.1057C521.977 40.1641 521.987 40.2522 522.149 40.5015C522.713 41.553 522.998 42.502 522.97 43.4416C522.833 43.8137 522.829 43.7697 522.476 43.8093Z" fill="#DE131B" stroke="black" stroke-width="0.184387" stroke-miterlimit="2.6131"/>
<path fill-rule="evenodd" clip-rule="evenodd" d="M521.199 43.5515C511.893 44.8652 502.498 46.1888 493.192 47.5024C493.35 48.5103 493.278 49.4549 492.873 50.6152C502.193 56.1674 511.543 61.9838 520.862 67.536C520.61 68.8576 520.165 69.6657 519.32 70.4742C518.997 70.778 518.807 71.067 518.459 70.7494C518.116 70.4758 517.895 70.0992 517.851 69.7029C517.796 69.2185 517.38 69.0869 517.15 69.0236C509.619 65.5 501.839 62.1382 494.303 58.5706C493.519 58.3465 492.952 58.4548 492.409 58.7834C490.678 60.0482 488.485 59.5812 488.218 57.2032C488.064 55.8381 487.295 54.9435 486.032 54.4166C481.881 53.59 477.681 52.7243 473.53 51.8977C473.318 50.8067 473.253 49.4317 473.222 47.9636C476.912 48.2623 480.988 48.4283 484.595 48.3796C484.574 47.4009 484.725 46.7597 484.93 46.2015C481.527 44.4882 477.727 42.8194 474.319 41.0621C474.479 40.1076 474.854 39.0843 475.69 38.1877C479.885 39.0093 484.09 40.3204 488.515 40.8041C489.283 40.896 490.11 40.3126 490.505 39.4655C491.256 37.8203 492.787 37.1577 494.058 39.3337C494.504 40.1308 495.283 40.7122 497.245 40.7146C504.591 40.6024 512.034 40.5684 519.379 40.4562C519.506 39.996 519.598 39.6288 520.372 39.7649C520.69 39.8183 520.695 39.8623 520.862 40.1557C521.426 41.2072 521.711 42.1562 521.687 43.1398C521.6 43.551 521.546 43.4679 521.199 43.5515Z" fill="#E30613" stroke="black" stroke-width="0.184387" stroke-miterlimit="2.6131"/>
<path fill-rule="evenodd" clip-rule="evenodd" d="M493.227 47.8107C492.905 44.9483 490.705 42.8322 488.327 43.0995C485.949 43.3668 484.274 45.9185 484.596 48.781C484.917 51.6434 487.117 53.7595 489.495 53.4922C491.868 53.1809 493.549 50.6731 493.227 47.8107Z" fill="#E63312" stroke="black" stroke-width="0.184387" stroke-miterlimit="2.6131"/>
<path fill-rule="evenodd" clip-rule="evenodd" d="M492.654 47.875C492.362 45.2768 490.319 43.366 488.117 43.6135C485.915 43.861 484.347 46.1777 484.64 48.7759C484.932 51.3741 486.975 53.2849 489.177 53.0374C491.378 52.7899 492.946 50.4731 492.654 47.875Z" fill="#E30613" stroke="black" stroke-width="0.184387" stroke-miterlimit="2.6131"/>
<path fill-rule="evenodd" clip-rule="evenodd" d="M489.317 47.9381C489.248 47.3216 488.797 46.8818 488.268 46.9412C487.74 47.0006 487.398 47.5295 487.467 48.146C487.537 48.7626 487.987 49.2024 488.516 49.143C489.044 49.0836 489.386 48.5547 489.317 47.9381Z" fill="#D8161E" stroke="black" stroke-width="0.184387" stroke-miterlimit="2.6131"/>
<path fill-rule="evenodd" clip-rule="evenodd" d="M484.551 48.3846C480.851 48.3991 477.044 48.2474 473.168 47.8805C473.412 47.6746 473.705 47.5078 473.999 47.3411C477.542 47.5225 481.041 47.7089 484.541 47.8952C484.56 48.0714 484.58 48.2475 484.551 48.3846Z" fill="#DC2311" stroke="black" stroke-width="0.184387" stroke-miterlimit="2.6131" stroke-linecap="round" stroke-linejoin="round"/>
<path fill-rule="evenodd" clip-rule="evenodd" d="M521.889 40.174C522.659 41.4699 523.018 42.6782 522.829 43.7697C522.417 43.6821 522.006 43.5946 521.595 43.507C521.706 42.5135 521.455 41.4714 520.896 40.464C520.783 40.2537 520.675 40.0875 520.563 39.8772C520.969 39.9207 521.424 40.0034 521.889 40.174Z" fill="#DC2311" stroke="black" stroke-width="0.184387" stroke-miterlimit="2.6131"/>
<path fill-rule="evenodd" clip-rule="evenodd" d="M520.104 71.0997C520.989 70.6434 521.98 69.1496 522.179 67.7448C521.729 67.7062 521.313 67.5746 520.906 67.5311C520.795 68.5247 520.244 69.5677 519.403 70.4203C519.242 70.5722 519.212 70.7093 518.743 70.8959C519.11 70.9884 519.619 71.1541 520.104 71.0997Z" fill="#DC2311" stroke="black" stroke-width="0.184387" stroke-miterlimit="2.6131"/>
<path d="M494.42 50.8872C494.971 49.4428 495.077 48.4052 494.709 47.5102M493.965 50.8046C494.516 49.3602 494.637 48.4547 494.23 47.6086M493.456 50.6388C494.007 49.1945 494.114 48.5582 493.75 47.7071" stroke="black" stroke-width="0.184387" stroke-miterlimit="2.6131"/>
<path fill-rule="evenodd" clip-rule="evenodd" d="M476.486 48.0425L473.476 47.8457L474.224 47.3603L476.93 47.6357L476.486 48.0425Z" fill="#C1994B"/>
<path fill-rule="evenodd" clip-rule="evenodd" d="M473.607 47.0284L473.647 47.3807L473.691 47.7771L473.98 47.5663L474.268 47.3555L473.935 47.1699L473.607 47.0284Z" fill="#D7B46A"/>
<path fill-rule="evenodd" clip-rule="evenodd" d="M473.436 47.0922L473.48 47.4885L473.52 47.8408L473.808 47.63L474.102 47.4632L473.769 47.2777L473.436 47.0922Z" fill="#D7B46A"/>
<path fill-rule="evenodd" clip-rule="evenodd" d="M473.23 47.2492L473.378 47.7677L473.476 47.8459L473.603 47.787L473.896 47.6202L473.563 47.4347L473.23 47.2492Z" fill="#D7B46A"/>
<path fill-rule="evenodd" clip-rule="evenodd" d="M476.411 47.3821L476.49 47.6854L476.574 48.0327L476.813 47.7828L477.014 47.5819L476.735 47.4795L476.411 47.3821Z" fill="#D7B46A"/>
<path fill-rule="evenodd" clip-rule="evenodd" d="M476.245 47.4899L476.324 47.7932L476.447 48.0916L476.647 47.8907L476.891 47.6848L476.568 47.5874L476.245 47.4899Z" fill="#D7B46A"/>
<path fill-rule="evenodd" clip-rule="evenodd" d="M476.133 47.6808L476.27 48.1112L476.408 48.1404L476.491 48.0865L476.73 47.8366L476.412 47.7832L476.133 47.6808Z" fill="#D7B46A"/>
<path fill-rule="evenodd" clip-rule="evenodd" d="M484.886 46.2064C481.576 44.5272 477.873 42.5353 474.28 41.111C474.446 41.4044 474.539 41.4385 474.706 41.7319C477.943 43.1518 481.596 45.1046 484.832 46.5245C484.906 46.3825 484.813 46.3484 484.886 46.2064Z" fill="#DC2311" stroke="black" stroke-width="0.184387" stroke-miterlimit="2.6131" stroke-linecap="round" stroke-linejoin="round"/>
<path fill-rule="evenodd" clip-rule="evenodd" d="M477.09 42.3113L474.51 41.1744L474.902 41.8884L477.345 42.9961L477.09 42.3113Z" fill="#C1994B"/>
<path fill-rule="evenodd" clip-rule="evenodd" d="M476.753 42.8843L476.949 42.6394L477.193 42.4335L477.272 42.7368L477.345 42.9961L477.027 42.9427L476.753 42.8843Z" fill="#D7B46A"/>
<path fill-rule="evenodd" clip-rule="evenodd" d="M476.694 42.757L476.895 42.5561L477.134 42.3062L477.213 42.6095L477.292 42.9128L476.968 42.8154L476.694 42.757Z" fill="#D7B46A"/>
<path fill-rule="evenodd" clip-rule="evenodd" d="M476.669 42.5368L476.997 42.277L477.09 42.3112L477.144 42.3943L477.218 42.6536L476.944 42.5952L476.669 42.5368Z" fill="#D7B46A"/>
<path fill-rule="evenodd" clip-rule="evenodd" d="M474.305 41.7326L474.461 41.5366L474.662 41.3357L474.779 41.5901L474.902 41.8884L474.623 41.786L474.305 41.7326Z" fill="#D7B46A"/>
<path fill-rule="evenodd" clip-rule="evenodd" d="M474.202 41.6103L474.402 41.4094L474.603 41.2085L474.72 41.4629L474.843 41.7612L474.525 41.7078L474.202 41.6103Z" fill="#D7B46A"/>
<path fill-rule="evenodd" clip-rule="evenodd" d="M474.133 41.395L474.461 41.1352L474.554 41.1694L474.652 41.2475L474.774 41.5459L474.456 41.4925L474.133 41.395Z" fill="#D7B46A"/>
<path d="M66.9905 44.9353L42 44.9353L42 758L893 758" stroke="black" stroke-opacity="0.7" stroke-width="4"/>
<g clip-path="url(#clip0_163_551)">
<path fill-rule="evenodd" clip-rule="evenodd" d="M884.234 776.026C891.934 777.399 899.056 778.652 906.756 780.025C906.892 779.187 907.201 778.422 907.822 777.61C901.847 770.832 896.654 763.916 890.679 757.139C891.258 756.167 891.819 755.643 892.697 755.223C893.074 755.037 893.285 754.93 893.506 755.315C893.67 755.613 893.719 755.924 893.666 756.177C893.584 756.574 893.879 756.786 894.044 756.896C899.087 761.634 904.368 766.309 909.403 771.083C909.965 771.463 910.441 771.525 910.956 771.405C912.652 770.854 914.265 771.791 913.861 773.741C913.628 774.861 914.005 775.767 914.867 776.511C917.936 778.241 921.033 780.014 924.101 781.743C923.986 782.661 923.711 783.621 923.319 784.782C920.478 783.59 917.376 782.569 914.504 781.709C914.014 782.436 913.757 782.947 913.703 783.388C915.95 785.625 919.329 788.398 921.577 790.635C921.202 791.348 920.64 792.06 919.747 792.553C916.643 790.816 912.749 788.162 909.34 786.625C908.756 786.353 907.951 786.601 907.419 787.168C906.398 788.274 905.016 788.402 904.576 786.352C904.429 785.606 903.964 784.944 902.413 784.434C896.575 782.619 890.68 780.717 884.842 778.902C884.74 779.031 884.674 779.168 884.543 779.254C884.405 779.376 884.181 779.367 883.886 779.155C883.684 779.038 883.699 778.966 883.636 778.727C883.462 777.749 883.483 776.925 883.748 776.189C883.953 775.93 883.945 775.966 884.234 776.026Z" fill="black" stroke="#282727" stroke-width="0.184387" stroke-miterlimit="2.6131"/>
<path fill-rule="evenodd" clip-rule="evenodd" d="M885.178 776.561C892.877 777.934 900.649 779.322 908.349 780.694C908.485 779.856 908.787 779.128 909.408 778.315C903.477 771.51 897.59 764.487 891.659 757.681C892.201 756.702 892.762 756.178 893.64 755.757C893.974 755.601 894.2 755.422 894.393 755.763C894.593 756.068 894.67 756.423 894.602 756.748C894.52 757.145 894.815 757.357 894.98 757.467C900.023 762.205 905.304 766.88 910.339 771.654C910.901 772.034 911.377 772.096 911.892 771.976C913.588 771.425 915.201 772.362 914.797 774.312C914.564 775.431 914.941 776.338 915.803 777.082C918.872 778.812 921.969 780.585 925.037 782.314C924.922 783.232 924.617 784.336 924.261 785.505C921.42 784.313 918.24 783.125 915.375 782.229C915.138 783.008 914.852 783.476 914.546 783.864C916.793 786.101 919.365 788.406 921.605 790.679C921.231 791.392 920.669 792.104 919.776 792.596C916.671 790.859 913.685 788.733 910.312 787.204C909.728 786.932 908.923 787.179 908.391 787.746C907.371 788.853 905.988 788.98 905.548 786.93C905.401 786.184 904.936 785.522 903.385 785.012C897.547 783.197 891.652 781.295 885.814 779.48C885.595 779.811 885.427 780.078 884.85 779.77C884.613 779.645 884.62 779.609 884.564 779.334C884.391 778.356 884.411 777.532 884.684 776.76C884.86 776.457 884.881 776.537 885.178 776.561Z" fill="black" stroke="#3C3C3B" stroke-width="0.184387" stroke-miterlimit="2.6131"/>
<path fill-rule="evenodd" clip-rule="evenodd" d="M908.401 780.442C907.914 782.789 909.105 785.032 911.055 785.437C913.005 785.842 914.991 784.258 915.478 781.911C915.966 779.564 914.774 777.321 912.825 776.916C910.867 776.547 908.889 778.095 908.401 780.442Z" fill="#3C3C3B" stroke="#282727" stroke-width="0.184387" stroke-miterlimit="2.6131"/>
<path fill-rule="evenodd" clip-rule="evenodd" d="M908.871 780.539C908.429 782.67 909.549 784.71 911.354 785.085C913.16 785.46 915 784.034 915.442 781.904C915.885 779.773 914.764 777.733 912.959 777.358C911.153 776.983 909.313 778.409 908.871 780.539Z" fill="black" stroke="#282727" stroke-width="0.184387" stroke-miterlimit="2.6131"/>
<path fill-rule="evenodd" clip-rule="evenodd" d="M911.526 781.354C911.421 781.86 911.664 782.325 912.097 782.414C912.531 782.504 912.938 782.175 913.043 781.669C913.148 781.164 912.905 780.699 912.472 780.609C912.039 780.519 911.631 780.849 911.526 781.354Z" fill="black" stroke="#3C3C3B" stroke-width="0.184387" stroke-miterlimit="2.6131"/>
<path fill-rule="evenodd" clip-rule="evenodd" d="M915.411 782.236C918.34 783.184 921.312 784.29 924.282 785.585C924.036 785.684 923.76 785.74 923.485 785.796C920.73 784.734 918.011 783.68 915.292 782.626C915.322 782.482 915.352 782.337 915.411 782.236Z" fill="#3C3C3B" stroke="black" stroke-width="0.184387" stroke-miterlimit="2.6131" stroke-linecap="round" stroke-linejoin="round"/>
<path fill-rule="evenodd" clip-rule="evenodd" d="M883.756 779.053C883.483 777.829 883.513 776.78 883.945 775.966C884.248 776.142 884.55 776.318 884.853 776.494C884.507 777.25 884.436 778.14 884.617 779.081C884.651 779.277 884.694 779.436 884.728 779.632C884.418 779.492 884.08 779.309 883.756 779.053Z" fill="#282727" stroke="black" stroke-width="0.184387" stroke-miterlimit="2.6131"/>
<path fill-rule="evenodd" clip-rule="evenodd" d="M893.183 755.06C892.364 755.191 891.193 756.116 890.672 757.175C891.018 757.322 891.313 757.534 891.623 757.674C891.968 756.917 892.675 756.235 893.561 755.779C893.728 755.7 893.786 755.599 894.206 755.574C893.939 755.405 893.58 755.142 893.183 755.06Z" fill="#282727" stroke="black" stroke-width="0.184387" stroke-miterlimit="2.6131"/>
<path d="M908.255 777.7C907.445 778.699 907.092 779.492 907.151 780.295M908.594 777.883C907.784 778.882 907.453 779.567 907.556 780.342M908.954 778.146C908.143 779.145 907.894 779.621 907.961 780.388" stroke="#282727" stroke-width="0.184387" stroke-miterlimit="2.6131"/>
<path fill-rule="evenodd" clip-rule="evenodd" d="M921.7 784.597L924.03 785.532L923.312 785.723L921.243 784.803L921.7 784.597Z" fill="#C1994B"/>
<path fill-rule="evenodd" clip-rule="evenodd" d="M923.714 786.145L923.774 785.856L923.842 785.531L923.559 785.623L923.276 785.715L923.491 785.948L923.714 786.145Z" fill="#D7B46A"/>
<path fill-rule="evenodd" clip-rule="evenodd" d="M923.866 786.139L923.934 785.814L923.994 785.525L923.711 785.617L923.436 785.673L923.651 785.906L923.866 786.139Z" fill="#D7B46A"/>
<path fill-rule="evenodd" clip-rule="evenodd" d="M924.069 786.068L924.087 785.62L924.03 785.532L923.914 785.546L923.639 785.602L923.854 785.835L924.069 786.068Z" fill="#D7B46A"/>
<path fill-rule="evenodd" clip-rule="evenodd" d="M921.588 785.138L921.604 784.878L921.628 784.582L921.374 784.717L921.163 784.824L921.358 784.978L921.588 785.138Z" fill="#D7B46A"/>
<path fill-rule="evenodd" clip-rule="evenodd" d="M921.747 785.096L921.764 784.836L921.744 784.568L921.533 784.675L921.287 784.774L921.517 784.935L921.747 785.096Z" fill="#D7B46A"/>
<path fill-rule="evenodd" clip-rule="evenodd" d="M921.886 784.974L921.888 784.598L921.788 784.539L921.708 784.561L921.454 784.696L921.691 784.821L921.886 784.974Z" fill="#D7B46A"/>
<path fill-rule="evenodd" clip-rule="evenodd" d="M914.582 783.872C916.764 786.058 919.176 788.592 921.649 790.65C921.593 790.375 921.528 790.324 921.472 790.048C919.281 788.087 916.898 785.596 914.706 783.634C914.612 783.727 914.676 783.779 914.582 783.872Z" fill="#3C3C3B" stroke="black" stroke-width="0.184387" stroke-miterlimit="2.6131" stroke-linecap="round" stroke-linejoin="round"/>
<path fill-rule="evenodd" clip-rule="evenodd" d="M919.737 788.972L921.483 790.54L921.358 789.874L919.713 788.365L919.737 788.972Z" fill="#C1994B"/>
<path fill-rule="evenodd" clip-rule="evenodd" d="M920.152 788.607L919.934 788.75L919.687 788.849L919.704 788.589L919.713 788.365L919.95 788.489L920.152 788.607Z" fill="#D7B46A"/>
<path fill-rule="evenodd" clip-rule="evenodd" d="M920.166 788.722L919.955 788.829L919.701 788.965L919.717 788.705L919.734 788.444L919.964 788.605L920.166 788.722Z" fill="#D7B46A"/>
<path fill-rule="evenodd" clip-rule="evenodd" d="M920.128 788.903L919.802 789.024L919.737 788.973L919.716 788.893L919.725 788.669L919.927 788.786L920.128 788.903Z" fill="#D7B46A"/>
<path fill-rule="evenodd" clip-rule="evenodd" d="M921.79 790.152L921.615 790.266L921.405 790.373L921.378 790.142L921.358 789.874L921.552 790.027L921.79 790.152Z" fill="#D7B46A"/>
<path fill-rule="evenodd" clip-rule="evenodd" d="M921.84 790.275L921.629 790.382L921.418 790.489L921.391 790.257L921.372 789.99L921.609 790.114L921.84 790.275Z" fill="#D7B46A"/>
<path fill-rule="evenodd" clip-rule="evenodd" d="M921.838 790.463L921.512 790.584L921.447 790.533L921.39 790.445L921.37 790.178L921.608 790.302L921.838 790.463Z" fill="#D7B46A"/>
</g>
<g clip-path="url(#clip1_163_551)">
<path fill-rule="evenodd" clip-rule="evenodd" d="M60.8 46.3402C68.5876 47.0637 75.7864 47.7492 83.574 48.4727C83.4827 49.3168 83.5777 50.1359 83.96 51.0844C76.3984 56.0294 69.5539 61.3163 61.9923 66.2613C62.2915 67.3522 62.6929 68.0063 63.4277 68.6449C63.7423 68.9239 63.9169 69.0829 64.2326 68.7707C64.47 68.5273 64.5994 68.24 64.616 67.9824C64.6421 67.5776 64.9828 67.4517 65.1715 67.39C71.2921 64.1628 77.6263 61.0604 83.7493 57.7964C84.3915 57.5791 84.8675 57.6468 85.3317 57.8984C86.8205 58.8812 88.6249 58.4062 88.7529 56.4189C88.8264 55.2781 89.4306 54.5041 90.4598 54.0161C93.8775 53.1646 97.3343 52.2787 100.752 51.4273C100.885 50.512 100.875 49.5136 100.806 48.2897C97.7507 48.6841 94.4885 48.8434 91.491 48.9089C91.2119 48.078 91.1003 47.5165 91.1656 47.0772C93.9267 45.5183 97.9212 43.7432 100.682 42.1843C100.511 41.3972 100.159 40.5615 99.4286 39.8493C95.9741 40.6984 91.5154 42.2218 87.8199 42.7967C87.1848 42.9036 86.4748 42.4514 86.1127 41.7629C85.4229 40.425 84.1241 39.9349 83.1544 41.794C82.8149 42.4742 82.1905 42.9883 80.5594 43.068C74.4493 43.2656 68.2608 43.532 62.1507 43.7296C62.0866 43.5776 62.0593 43.428 61.956 43.3105C61.855 43.1562 61.6366 43.1052 61.2959 43.231C61.0704 43.2904 61.0656 43.364 60.941 43.5777C60.5137 44.474 60.3143 45.2742 60.3749 46.0541C60.5032 46.358 60.5055 46.3212 60.8 46.3402Z" fill="black" stroke="#282727" stroke-width="0.184387" stroke-miterlimit="2.6131"/>
<path fill-rule="evenodd" clip-rule="evenodd" d="M61.8517 46.0752C69.6393 46.7987 77.5006 47.5269 85.2882 48.2504C85.1968 49.0945 85.2943 49.8768 85.6766 50.8253C78.1494 55.8095 70.608 61.0145 63.0809 65.9987C63.3433 67.0872 63.7446 67.7413 64.4795 68.3799C64.7597 68.6197 64.9295 68.8524 65.206 68.5746C65.4803 68.3336 65.6488 68.0118 65.6701 67.6806C65.6962 67.2758 66.0369 67.1499 66.2257 67.0882C72.3462 63.8611 78.6805 60.7586 84.8034 57.4946C85.4456 57.2774 85.9217 57.345 86.3859 57.5966C87.8746 58.5794 89.679 58.1044 89.8071 56.1172C89.8806 54.9763 90.4847 54.2023 91.5139 53.7143C94.9316 52.8628 98.3885 51.9769 101.806 51.1255C101.939 50.2102 101.939 49.0646 101.907 47.8431C98.8511 48.2374 95.469 48.5369 92.4692 48.6392C92.4477 47.8249 92.2969 47.2978 92.1046 46.8419C94.8657 45.283 97.958 43.7454 100.722 42.1497C100.551 41.3626 100.198 40.5269 99.4677 39.8147C96.0133 40.6638 92.5695 41.9201 88.9108 42.4973C88.2757 42.6042 87.5658 42.152 87.2036 41.4635C86.5138 40.1256 85.2151 39.6355 84.2453 41.4946C83.9059 42.1748 83.2815 42.6889 81.6504 42.7686C75.5402 42.9662 69.3518 43.2326 63.2416 43.4302C63.1181 43.0527 63.0267 42.7511 62.3892 42.8948C62.1269 42.9518 62.1245 42.9886 61.9975 43.2391C61.5702 44.1355 61.3708 44.9356 61.4291 45.7523C61.5181 46.0907 61.5597 46.0194 61.8517 46.0752Z" fill="black" stroke="#3C3C3B" stroke-width="0.184387" stroke-miterlimit="2.6131"/>
<path fill-rule="evenodd" clip-rule="evenodd" d="M85.2716 48.508C85.4257 46.116 87.1706 44.2698 89.1579 44.3979C91.1452 44.5259 92.6387 46.5807 92.4846 48.9728C92.3305 51.3649 90.5856 53.211 88.5983 53.083C86.6134 52.9181 85.1175 50.9001 85.2716 48.508Z" fill="#3C3C3B" stroke="#282727" stroke-width="0.184387" stroke-miterlimit="2.6131"/>
<path fill-rule="evenodd" clip-rule="evenodd" d="M85.75 48.5388C85.8899 46.3676 87.5126 44.6983 89.3526 44.8169C91.1927 44.9355 92.5877 46.7991 92.4478 48.9704C92.3079 51.1417 90.6853 52.8109 88.8452 52.6923C87.0051 52.5738 85.6101 50.7101 85.75 48.5388Z" fill="black" stroke="#282727" stroke-width="0.184387" stroke-miterlimit="2.6131"/>
<path fill-rule="evenodd" clip-rule="evenodd" d="M88.5267 48.4591C88.5599 47.9439 88.9172 47.5604 89.3588 47.5889C89.8004 47.6173 90.1055 48.0435 90.0723 48.5587C90.0391 49.0739 89.6819 49.4574 89.2402 49.4289C88.7986 49.4005 88.4935 48.9743 88.5267 48.4591Z" fill="black" stroke="#3C3C3B" stroke-width="0.184387" stroke-miterlimit="2.6131"/>
<path fill-rule="evenodd" clip-rule="evenodd" d="M92.506 48.6415C95.5818 48.5071 98.7407 48.2303 101.948 47.7718C101.737 47.6103 101.486 47.4833 101.236 47.3563C98.2979 47.6474 95.3966 47.9409 92.4952 48.2343C92.4858 48.3816 92.4763 48.5288 92.506 48.6415Z" fill="#3C3C3B" stroke="black" stroke-width="0.184387" stroke-miterlimit="2.6131" stroke-linecap="round" stroke-linejoin="round"/>
<path fill-rule="evenodd" clip-rule="evenodd" d="M61.144 43.2951C60.5552 44.4028 60.3048 45.4213 60.5055 46.3212C60.8439 46.2321 61.1822 46.143 61.5205 46.054C61.3887 45.2325 61.556 44.3564 61.9809 43.4969C62.0664 43.3176 62.1495 43.1751 62.2349 42.9959C61.899 43.0481 61.5238 43.1348 61.144 43.2951Z" fill="#282727" stroke="black" stroke-width="0.184387" stroke-miterlimit="2.6131"/>
<path fill-rule="evenodd" clip-rule="evenodd" d="M63.8528 68.931C63.0989 68.5867 62.2156 67.3843 61.9947 66.2245C62.3674 66.1746 62.7081 66.0487 63.0441 65.9964C63.1759 66.8179 63.6758 67.6631 64.4083 68.3385C64.5484 68.4584 64.5781 68.5712 64.9758 68.7077C64.6742 68.7991 64.2576 68.957 63.8528 68.931Z" fill="#282727" stroke="black" stroke-width="0.184387" stroke-miterlimit="2.6131"/>
<path d="M84.4016 51.1127C83.8863 49.9339 83.7569 49.0756 84.0275 48.317M84.7768 51.026C84.2615 49.8472 84.1249 49.0993 84.4299 48.3799M85.1934 50.8681C84.6781 49.6893 84.5641 49.1646 84.8324 48.4428" stroke="#282727" stroke-width="0.184387" stroke-miterlimit="2.6131"/>
<path fill-rule="evenodd" clip-rule="evenodd" d="M99.1966 48.038L101.691 47.7553L101.05 47.3814L98.8107 47.7176L99.1966 48.038Z" fill="#C1994B"/>
<path fill-rule="evenodd" clip-rule="evenodd" d="M101.549 47.0809L101.53 47.3753L101.509 47.7065L101.261 47.5427L101.013 47.3789L101.282 47.2115L101.549 47.0809Z" fill="#D7B46A"/>
<path fill-rule="evenodd" clip-rule="evenodd" d="M101.694 47.1273L101.673 47.4585L101.654 47.7529L101.406 47.5891L101.155 47.4621L101.425 47.2947L101.694 47.1273Z" fill="#D7B46A"/>
<path fill-rule="evenodd" clip-rule="evenodd" d="M101.871 47.2494L101.769 47.6863L101.691 47.7552L101.583 47.7112L101.332 47.5842L101.602 47.4168L101.871 47.2494Z" fill="#D7B46A"/>
<path fill-rule="evenodd" clip-rule="evenodd" d="M99.2321 47.4861L99.1787 47.7414L99.123 48.0334L98.914 47.8352L98.7395 47.6761L98.9674 47.5799L99.2321 47.4861Z" fill="#D7B46A"/>
<path fill-rule="evenodd" clip-rule="evenodd" d="M99.3746 47.569L99.3212 47.8242L99.231 48.0771L99.0565 47.918L98.8451 47.7566L99.1099 47.6628L99.3746 47.569Z" fill="#D7B46A"/>
<path fill-rule="evenodd" clip-rule="evenodd" d="M99.4755 47.7234L99.3782 48.0867L99.2654 48.1164L99.1942 48.0748L98.9852 47.8766L99.2476 47.8196L99.4755 47.7234Z" fill="#D7B46A"/>
<path fill-rule="evenodd" clip-rule="evenodd" d="M92.1414 46.8444C94.8265 45.3176 97.8251 43.5153 100.756 42.189C100.629 42.4395 100.553 42.4716 100.426 42.722C97.7919 44.0305 94.8325 45.7984 92.1984 47.1068C92.1319 46.9916 92.2079 46.9596 92.1414 46.8444Z" fill="#3C3C3B" stroke="black" stroke-width="0.184387" stroke-miterlimit="2.6131" stroke-linecap="round" stroke-linejoin="round"/>
<path fill-rule="evenodd" clip-rule="evenodd" d="M98.4673 43.2979L100.567 42.2506L100.269 42.8597L98.2821 43.8772L98.4673 43.2979Z" fill="#C1994B"/>
<path fill-rule="evenodd" clip-rule="evenodd" d="M98.77 43.7608L98.5979 43.565L98.3866 43.4035L98.3332 43.6588L98.2821 43.8772L98.5445 43.8202L98.77 43.7608Z" fill="#D7B46A"/>
<path fill-rule="evenodd" clip-rule="evenodd" d="M98.8139 43.6527L98.6394 43.4937L98.4305 43.2954L98.3771 43.5507L98.3237 43.8059L98.5884 43.7121L98.8139 43.6527Z" fill="#D7B46A"/>
<path fill-rule="evenodd" clip-rule="evenodd" d="M98.8258 43.4687L98.5433 43.2657L98.4673 43.2977L98.4257 43.369L98.3747 43.5874L98.6003 43.528L98.8258 43.4687Z" fill="#D7B46A"/>
<path fill-rule="evenodd" clip-rule="evenodd" d="M100.76 42.7064L100.622 42.5497L100.447 42.3907L100.36 42.6068L100.269 42.8596L100.497 42.7634L100.76 42.7064Z" fill="#D7B46A"/>
<path fill-rule="evenodd" clip-rule="evenodd" d="M100.84 42.6009L100.666 42.4418L100.491 42.2828L100.403 42.4988L100.313 42.7517L100.576 42.6947L100.84 42.6009Z" fill="#D7B46A"/>
<path fill-rule="evenodd" clip-rule="evenodd" d="M100.889 42.4193L100.606 42.2163L100.53 42.2483L100.452 42.3172L100.362 42.5701L100.624 42.5131L100.889 42.4193Z" fill="#D7B46A"/>
</g>
<defs>
<filter id="filter0_d_163_551" x="920.189" y="709.223" width="465.737" height="97.6829" filterUnits="userSpaceOnUse" color-interpolation-filters="sRGB">
<feFlood flood-opacity="0" result="BackgroundImageFix"/>
<feColorMatrix in="SourceAlpha" type="matrix" values="0 0 0 0 0 0 0 0 0 0 0 0 0 0 0 0 0 0 127 0" result="hardAlpha"/>
<feOffset dx="3.68775" dy="3.68775"/>
<feGaussianBlur stdDeviation="2.21265"/>
<feComposite in2="hardAlpha" operator="out"/>
<feColorMatrix type="matrix" values="0 0 0 0 0 0 0 0 0 0 0 0 0 0 0 0 0 0 0.3 0"/>
<feBlend mode="normal" in2="BackgroundImageFix" result="effect1_dropShadow_163_551"/>
<feBlend mode="normal" in="SourceGraphic" in2="effect1_dropShadow_163_551" result="shape"/>
</filter>
<filter id="filter1_d_163_551" x="427.805" y="36.2692" width="61.2166" height="32.0835" filterUnits="userSpaceOnUse" color-interpolation-filters="sRGB">
<feFlood flood-opacity="0" result="BackgroundImageFix"/>
<feColorMatrix in="SourceAlpha" type="matrix" values="0 0 0 0 0 0 0 0 0 0 0 0 0 0 0 0 0 0 127 0" result="hardAlpha"/>
<feOffset dx="1.4751" dy="1.4751"/>
<feGaussianBlur stdDeviation="0.921937"/>
<feComposite in2="hardAlpha" operator="out"/>
<feColorMatrix type="matrix" values="0 0 0 0 0 0 0 0 0 0 0 0 0 0 0 0 0 0 0.2 0"/>
<feBlend mode="normal" in2="BackgroundImageFix" result="effect1_dropShadow_163_551"/>
<feBlend mode="normal" in="SourceGraphic" in2="effect1_dropShadow_163_551" result="shape"/>
</filter>
<filter id="filter2_d_163_551" x="92.2195" y="36.2692" width="61.2166" height="32.0835" filterUnits="userSpaceOnUse" color-interpolation-filters="sRGB">
<feFlood flood-opacity="0" result="BackgroundImageFix"/>
<feColorMatrix in="SourceAlpha" type="matrix" values="0 0 0 0 0 0 0 0 0 0 0 0 0 0 0 0 0 0 127 0" result="hardAlpha"/>
<feOffset dx="1.4751" dy="1.4751"/>
<feGaussianBlur stdDeviation="0.921937"/>
<feComposite in2="hardAlpha" operator="out"/>
<feColorMatrix type="matrix" values="0 0 0 0 0 0 0 0 0 0 0 0 0 0 0 0 0 0 0.2 0"/>
<feBlend mode="normal" in2="BackgroundImageFix" result="effect1_dropShadow_163_551"/>
<feBlend mode="normal" in="SourceGraphic" in2="effect1_dropShadow_163_551" result="shape"/>
</filter>
<filter id="filter3_d_163_551" x="159.337" y="36.2692" width="61.2166" height="32.0835" filterUnits="userSpaceOnUse" color-interpolation-filters="sRGB">
<feFlood flood-opacity="0" result="BackgroundImageFix"/>
<feColorMatrix in="SourceAlpha" type="matrix" values="0 0 0 0 0 0 0 0 0 0 0 0 0 0 0 0 0 0 127 0" result="hardAlpha"/>
<feOffset dx="1.4751" dy="1.4751"/>
<feGaussianBlur stdDeviation="0.921937"/>
<feComposite in2="hardAlpha" operator="out"/>
<feColorMatrix type="matrix" values="0 0 0 0 0 0 0 0 0 0 0 0 0 0 0 0 0 0 0.2 0"/>
<feBlend mode="normal" in2="BackgroundImageFix" result="effect1_dropShadow_163_551"/>
<feBlend mode="normal" in="SourceGraphic" in2="effect1_dropShadow_163_551" result="shape"/>
</filter>
<filter id="filter4_d_163_551" x="226.454" y="36.2692" width="61.2166" height="32.0835" filterUnits="userSpaceOnUse" color-interpolation-filters="sRGB">
<feFlood flood-opacity="0" result="BackgroundImageFix"/>
<feColorMatrix in="SourceAlpha" type="matrix" values="0 0 0 0 0 0 0 0 0 0 0 0 0 0 0 0 0 0 127 0" result="hardAlpha"/>
<feOffset dx="1.4751" dy="1.4751"/>
<feGaussianBlur stdDeviation="0.921937"/>
<feComposite in2="hardAlpha" operator="out"/>
<feColorMatrix type="matrix" values="0 0 0 0 0 0 0 0 0 0 0 0 0 0 0 0 0 0 0.2 0"/>
<feBlend mode="normal" in2="BackgroundImageFix" result="effect1_dropShadow_163_551"/>
<feBlend mode="normal" in="SourceGraphic" in2="effect1_dropShadow_163_551" result="shape"/>
</filter>
<filter id="filter5_d_163_551" x="293.571" y="36.2692" width="61.2166" height="32.0835" filterUnits="userSpaceOnUse" color-interpolation-filters="sRGB">
<feFlood flood-opacity="0" result="BackgroundImageFix"/>
<feColorMatrix in="SourceAlpha" type="matrix" values="0 0 0 0 0 0 0 0 0 0 0 0 0 0 0 0 0 0 127 0" result="hardAlpha"/>
<feOffset dx="1.4751" dy="1.4751"/>
<feGaussianBlur stdDeviation="0.921937"/>
<feComposite in2="hardAlpha" operator="out"/>
<feColorMatrix type="matrix" values="0 0 0 0 0 0 0 0 0 0 0 0 0 0 0 0 0 0 0.2 0"/>
<feBlend mode="normal" in2="BackgroundImageFix" result="effect1_dropShadow_163_551"/>
<feBlend mode="normal" in="SourceGraphic" in2="effect1_dropShadow_163_551" result="shape"/>
</filter>
<filter id="filter6_d_163_551" x="360.688" y="36.2692" width="61.2166" height="32.0835" filterUnits="userSpaceOnUse" color-interpolation-filters="sRGB">
<feFlood flood-opacity="0" result="BackgroundImageFix"/>
<feColorMatrix in="SourceAlpha" type="matrix" values="0 0 0 0 0 0 0 0 0 0 0 0 0 0 0 0 0 0 127 0" result="hardAlpha"/>
<feOffset dx="1.4751" dy="1.4751"/>
<feGaussianBlur stdDeviation="0.921937"/>
<feComposite in2="hardAlpha" operator="out"/>
<feColorMatrix type="matrix" values="0 0 0 0 0 0 0 0 0 0 0 0 0 0 0 0 0 0 0.2 0"/>
<feBlend mode="normal" in2="BackgroundImageFix" result="effect1_dropShadow_163_551"/>
<feBlend mode="normal" in="SourceGraphic" in2="effect1_dropShadow_163_551" result="shape"/>
</filter>
<clipPath id="clip0_163_551">
<rect width="31.5671" height="41.8928" fill="white" transform="matrix(-0.203308 0.979115 0.979115 0.203308 888.418 754)"/>
</clipPath>
<clipPath id="clip1_163_551">
<rect width="31.5671" height="41.8928" fill="white" transform="translate(58.8775 68.7212) rotate(-86.3134)"/>
</clipPath>
</defs>
</svg>
