<svg width="800" height="1408" viewBox="0 0 800 1408" fill="none" xmlns="http://www.w3.org/2000/svg">
<ellipse cx="441.786" cy="1035.56" rx="524.56" ry="388.496" transform="rotate(-130 441.786 1035.56)" fill="#D9D9D9" fill-opacity="0.21"/>
<g filter="url(#filter0_d_143_392)">
<path d="M307.823 1380.8C307.823 1384.45 307.335 1387.61 306.358 1390.28C305.38 1392.95 304.012 1395.29 302.253 1397.31C300.494 1399.33 298.442 1401.09 296.096 1402.59C293.751 1404.09 291.21 1405.49 288.474 1406.79L281.926 1395.95C284.402 1394.64 286.291 1393.34 287.594 1392.04C288.962 1390.8 289.94 1389.53 290.526 1388.22C291.178 1386.99 291.536 1385.78 291.601 1384.61C291.731 1383.37 291.797 1382.17 291.797 1380.99V1318.84H307.823V1380.8ZM345.188 1335.94H360.629V1361.45C360.629 1365.36 360.889 1368.61 361.411 1371.22C361.932 1373.83 362.551 1375.91 363.267 1377.48C364.049 1379.36 364.961 1380.83 366.004 1381.87L353.593 1385.78C353.006 1385.2 352.42 1384.45 351.833 1383.53C351.312 1382.82 350.791 1381.91 350.27 1380.8C349.749 1379.63 349.325 1378.29 348.999 1376.79C347.306 1379.85 344.96 1382.1 341.963 1383.53C339.031 1384.9 335.839 1385.59 332.386 1385.59C329.845 1385.59 327.663 1385.2 325.839 1384.41C324.079 1383.57 322.614 1382.43 321.441 1380.99C320.333 1379.49 319.519 1377.7 318.998 1375.62C318.542 1373.53 318.314 1371.19 318.314 1368.58V1335.94H333.852V1366.53C333.852 1368.81 334.113 1370.67 334.634 1372.1C335.22 1373.47 336.263 1374.15 337.761 1374.15C339.585 1374.15 341.279 1372.95 342.843 1370.54C344.406 1368.06 345.188 1364.67 345.188 1360.37V1335.94ZM424.995 1385V1354.51C424.995 1352.23 424.799 1350.41 424.408 1349.04C424.017 1347.6 423.138 1346.89 421.77 1346.89C420.206 1346.89 418.74 1348.03 417.372 1350.31C416.004 1352.52 415.32 1355.49 415.32 1359.2V1385H399.781V1354.51C399.781 1352.23 399.586 1350.41 399.195 1349.04C398.869 1347.6 397.99 1346.89 396.557 1346.89C394.928 1346.89 393.429 1348.06 392.061 1350.41C390.758 1352.69 390.107 1355.78 390.107 1359.69V1385H374.666V1359.59C374.666 1355.68 374.373 1352.46 373.787 1349.92C373.265 1347.31 372.646 1345.19 371.93 1343.56C371.148 1341.74 370.268 1340.27 369.291 1339.17L381.702 1335.26C382.223 1335.91 382.777 1336.66 383.364 1337.51C383.885 1338.22 384.373 1339.17 384.83 1340.34C385.351 1341.45 385.807 1342.72 386.198 1344.15C387.761 1341.09 389.911 1338.84 392.648 1337.41C395.449 1335.97 398.544 1335.26 401.931 1335.26C404.798 1335.26 407.111 1335.84 408.87 1337.02C410.694 1338.12 412.16 1339.75 413.268 1341.9C414.961 1339.56 416.981 1337.86 419.327 1336.82C421.672 1335.78 424.278 1335.26 427.145 1335.26C429.685 1335.26 431.803 1335.68 433.497 1336.53C435.191 1337.31 436.526 1338.45 437.503 1339.95C438.546 1341.38 439.295 1343.17 439.751 1345.32C440.207 1347.41 440.435 1349.72 440.435 1352.26V1385H424.995ZM452.636 1406.6V1359.59C452.636 1355.68 452.343 1352.46 451.757 1349.92C451.236 1347.31 450.617 1345.19 449.9 1343.56C449.118 1341.74 448.239 1340.27 447.261 1339.17L459.673 1335.26C460.454 1336.04 461.171 1336.98 461.823 1338.09C462.344 1339 462.865 1340.18 463.386 1341.61C463.907 1342.98 464.298 1344.57 464.559 1346.4C465.797 1342.68 467.491 1339.92 469.641 1338.09C471.856 1336.2 474.722 1335.26 478.24 1335.26C481.302 1335.26 483.974 1335.84 486.254 1337.02C488.599 1338.19 490.521 1339.85 492.02 1342C493.583 1344.09 494.723 1346.63 495.44 1349.62C496.222 1352.62 496.613 1355.98 496.613 1359.69C496.613 1363.34 496.026 1366.76 494.854 1369.95C493.681 1373.08 492.02 1375.81 489.87 1378.16C487.785 1380.44 485.309 1382.26 482.443 1383.63C479.576 1384.93 476.481 1385.59 473.159 1385.59C471.334 1385.59 469.641 1385.39 468.077 1385V1403.96L452.636 1406.6ZM475.211 1346.59C474.234 1346.59 473.289 1347.02 472.377 1347.86C471.53 1348.65 470.781 1349.72 470.129 1351.09C469.478 1352.39 468.957 1353.96 468.566 1355.78C468.24 1357.54 468.077 1359.4 468.077 1361.35V1373.57C468.533 1373.7 469.152 1373.86 469.934 1374.05C470.716 1374.19 471.432 1374.25 472.084 1374.25C473.647 1374.25 474.95 1373.92 475.993 1373.27C477.035 1372.56 477.85 1371.61 478.436 1370.44C479.087 1369.2 479.543 1367.77 479.804 1366.14C480.065 1364.45 480.195 1362.62 480.195 1360.67C480.195 1358.84 480.162 1357.08 480.097 1355.39C480.032 1353.7 479.804 1352.2 479.413 1350.89C479.087 1349.59 478.599 1348.55 477.947 1347.77C477.296 1346.98 476.384 1346.59 475.211 1346.59Z" fill="black"/>
<path d="M550.236 1317.96C552.581 1317.96 554.829 1318.16 556.979 1318.55C559.194 1318.94 561.246 1319.43 563.135 1320.01C565.025 1320.6 566.719 1321.28 568.217 1322.06C569.781 1322.78 571.116 1323.53 572.224 1324.31L566.556 1335.06C565.774 1334.67 564.829 1334.18 563.722 1333.6C562.614 1332.94 561.409 1332.33 560.106 1331.74C558.868 1331.15 557.565 1330.66 556.197 1330.27C554.894 1329.88 553.624 1329.69 552.386 1329.69C550.105 1329.69 548.412 1330.18 547.304 1331.15C546.196 1332.07 545.643 1333.24 545.643 1334.67C545.708 1335.78 545.968 1336.76 546.424 1337.6C546.88 1338.45 547.565 1339.3 548.477 1340.14C549.389 1340.93 550.561 1341.71 551.995 1342.49C553.428 1343.27 555.187 1344.09 557.272 1344.93C559.878 1346.04 562.158 1347.18 564.113 1348.35C566.067 1349.53 567.663 1350.86 568.901 1352.36C570.204 1353.86 571.182 1355.55 571.833 1357.44C572.485 1359.33 572.81 1361.51 572.81 1363.99C572.81 1366.99 572.257 1369.82 571.149 1372.49C570.107 1375.1 568.576 1377.38 566.556 1379.33C564.536 1381.29 562.093 1382.82 559.226 1383.93C556.36 1385.03 553.135 1385.59 549.552 1385.59C547.011 1385.59 544.568 1385.36 542.222 1384.9C539.942 1384.45 537.825 1383.86 535.87 1383.14C533.916 1382.43 532.124 1381.68 530.495 1380.9C528.866 1380.05 527.466 1379.27 526.293 1378.55L531.57 1367.02C532.026 1367.34 532.873 1367.9 534.111 1368.68C535.349 1369.4 536.75 1370.15 538.313 1370.93C539.877 1371.64 541.473 1372.3 543.102 1372.88C544.731 1373.47 546.196 1373.76 547.499 1373.76C550.236 1373.76 552.223 1373.14 553.461 1371.9C554.764 1370.6 555.415 1368.78 555.415 1366.43C555.415 1364.09 554.601 1362.33 552.972 1361.16C551.408 1359.92 549.161 1358.71 546.229 1357.54C543.362 1356.37 540.822 1355.13 538.606 1353.83C536.391 1352.52 534.502 1351.06 532.938 1349.43C531.44 1347.8 530.267 1345.98 529.42 1343.96C528.638 1341.94 528.248 1339.59 528.248 1336.92C528.248 1333.99 528.834 1331.38 530.007 1329.1C531.244 1326.76 532.873 1324.77 534.893 1323.14C536.913 1321.45 539.225 1320.18 541.831 1319.33C544.503 1318.42 547.304 1317.96 550.236 1317.96ZM573.601 1336.33H581.615L583.276 1326.27L596.664 1323.34V1336.33H608.196L606.339 1347.67H596.664V1369.46C596.664 1372.33 598.163 1373.76 601.16 1373.76C602.789 1373.76 604.352 1373.6 605.851 1373.27C606.632 1373.08 607.414 1372.88 608.196 1372.69L610.835 1383.05C609.532 1383.5 607.707 1384.02 605.362 1384.61C603.082 1385.13 600.28 1385.39 596.958 1385.39C592.071 1385.39 588.227 1384.38 585.426 1382.36C582.69 1380.34 581.322 1376.92 581.322 1372.1V1347.67H573.601V1336.33ZM656.077 1361.45C656.077 1365.36 656.337 1368.61 656.859 1371.22C657.38 1373.83 657.999 1375.91 658.715 1377.48C659.497 1379.36 660.409 1380.83 661.452 1381.87L649.041 1385.78C648.324 1385.13 647.672 1384.32 647.086 1383.34C646.565 1382.49 646.044 1381.48 645.523 1380.31C645.066 1379.07 644.676 1377.64 644.35 1376.01C643.242 1379.07 641.613 1381.45 639.464 1383.14C637.314 1384.77 634.48 1385.59 630.961 1385.59C627.769 1385.59 624.968 1385 622.557 1383.83C620.212 1382.65 618.257 1381.03 616.694 1378.94C615.13 1376.79 613.957 1374.22 613.175 1371.22C612.459 1368.22 612.1 1364.9 612.1 1361.25C612.1 1357.54 612.687 1354.09 613.859 1350.89C615.097 1347.7 616.791 1344.97 618.941 1342.68C621.091 1340.34 623.665 1338.52 626.662 1337.21C629.658 1335.91 632.981 1335.26 636.629 1335.26C638.649 1335.26 640.799 1335.42 643.079 1335.75C645.36 1336.01 647.444 1336.33 649.334 1336.72C651.223 1337.05 652.787 1337.38 654.025 1337.7C655.328 1337.96 656.012 1338.09 656.077 1338.09V1361.45ZM633.502 1374.25C634.48 1374.25 635.392 1373.83 636.239 1372.98C637.151 1372.13 637.932 1370.99 638.584 1369.56C639.236 1368.13 639.724 1366.5 640.05 1364.67C640.441 1362.78 640.636 1360.8 640.636 1358.71V1347.38C640.18 1347.18 639.529 1347.02 638.682 1346.89C637.9 1346.69 637.216 1346.59 636.629 1346.59C635.066 1346.59 633.763 1346.95 632.72 1347.67C631.678 1348.32 630.831 1349.27 630.18 1350.5C629.593 1351.68 629.17 1353.11 628.909 1354.8C628.649 1356.5 628.518 1358.32 628.518 1360.28C628.518 1362.1 628.551 1363.86 628.616 1365.55C628.681 1367.18 628.877 1368.65 629.202 1369.95C629.593 1371.25 630.114 1372.3 630.766 1373.08C631.417 1373.86 632.33 1374.25 633.502 1374.25ZM690.712 1350.01C689.995 1350.01 689.214 1350.21 688.367 1350.6C687.52 1350.99 686.705 1351.61 685.924 1352.46C685.142 1353.24 684.49 1354.28 683.969 1355.58C683.448 1356.82 683.187 1358.32 683.187 1360.08V1385H667.747V1359.59C667.747 1355.68 667.453 1352.46 666.867 1349.92C666.346 1347.31 665.727 1345.19 665.01 1343.56C664.229 1341.74 663.349 1340.27 662.372 1339.17L674.783 1335.26C675.304 1335.91 675.858 1336.66 676.444 1337.51C676.9 1338.22 677.389 1339.13 677.91 1340.24C678.431 1341.35 678.855 1342.62 679.18 1344.05C680.809 1340.93 682.731 1338.68 684.946 1337.31C687.227 1335.94 689.898 1335.26 692.96 1335.26C694.328 1335.26 695.533 1335.39 696.576 1335.65C697.683 1335.84 698.595 1336.07 699.312 1336.33L695.305 1351.09C694.849 1350.83 694.23 1350.6 693.448 1350.41C692.732 1350.14 691.82 1350.01 690.712 1350.01ZM701.579 1336.33H709.593L711.254 1326.27L724.643 1323.34V1336.33H736.174L734.317 1347.67H724.643V1369.46C724.643 1372.33 726.141 1373.76 729.138 1373.76C730.767 1373.76 732.33 1373.6 733.829 1373.27C734.611 1373.08 735.392 1372.88 736.174 1372.69L738.813 1383.05C737.51 1383.5 735.686 1384.02 733.34 1384.61C731.06 1385.13 728.258 1385.39 724.936 1385.39C720.05 1385.39 716.206 1384.38 713.404 1382.36C710.668 1380.34 709.3 1376.92 709.3 1372.1V1347.67H701.579V1336.33Z" fill="#FF0909"/>
</g>
<rect x="83" width="413.765" height="44.253" rx="3.68775" fill="#686552" fill-opacity="0.41"/>
<g filter="url(#filter1_d_143_392)">
<path d="M428.173 31.3459C428.173 33.3826 429.824 35.0337 431.861 35.0337H482.014C484.051 35.0337 485.702 33.3826 485.702 31.3459V10.3258C485.702 8.28909 484.051 6.63803 482.014 6.63803H431.861C429.824 6.63803 428.173 8.28909 428.173 10.3258V31.3459Z" fill="#8E8168"/>
</g>
<circle cx="4.24091" cy="4.24091" r="4.24091" transform="matrix(1 0 0 -1 472.057 19.1763)" fill="#4F4F4F"/>
<circle cx="2.98434" cy="2.98434" r="2.98434" transform="matrix(1 0 0 -1 473.314 17.9197)" fill="black"/>
<circle cx="2.04192" cy="2.04192" r="2.04192" transform="matrix(1 0 0 -1 474.256 16.9773)" fill="#464646"/>
<g filter="url(#filter2_d_143_392)">
<path d="M92.5881 31.3459C92.5881 33.3826 94.2392 35.0337 96.2759 35.0337H146.429C148.466 35.0337 150.117 33.3826 150.117 31.3459V10.3258C150.117 8.28909 148.466 6.63803 146.429 6.63803H96.2759C94.2392 6.63803 92.5881 8.28909 92.5881 10.3258V31.3459Z" fill="#8E8168"/>
</g>
<g filter="url(#filter3_d_143_392)">
<path d="M159.705 31.3459C159.705 33.3826 161.356 35.0337 163.393 35.0337H213.546C215.583 35.0337 217.234 33.3826 217.234 31.3459V10.3258C217.234 8.28909 215.583 6.63803 213.546 6.63803H163.393C161.356 6.63803 159.705 8.28909 159.705 10.3258V31.3459Z" fill="#8E8168"/>
</g>
<g filter="url(#filter4_d_143_392)">
<path d="M226.822 31.3459C226.822 33.3826 228.473 35.0337 230.51 35.0337H280.663C282.7 35.0337 284.351 33.3826 284.351 31.3459V10.3258C284.351 8.28909 282.7 6.63803 280.663 6.63803H230.51C228.473 6.63803 226.822 8.28909 226.822 10.3258V31.3459Z" fill="#8E8168"/>
</g>
<g filter="url(#filter5_d_143_392)">
<path d="M293.939 31.3459C293.939 33.3826 295.59 35.0337 297.627 35.0337H347.78C349.817 35.0337 351.468 33.3826 351.468 31.3459V10.3258C351.468 8.28909 349.817 6.63803 347.78 6.63803H297.627C295.59 6.63803 293.939 8.28909 293.939 10.3258V31.3459Z" fill="#8E8168"/>
</g>
<g filter="url(#filter6_d_143_392)">
<path d="M361.056 31.3459C361.056 33.3826 362.707 35.0337 364.744 35.0337H414.897C416.934 35.0337 418.585 33.3826 418.585 31.3459V10.3258C418.585 8.28909 416.934 6.63803 414.897 6.63803H364.744C362.707 6.63803 361.056 8.28909 361.056 10.3258V31.3459Z" fill="#8E8168"/>
</g>
<rect width="31.3459" height="6.63795" transform="matrix(1 0 0 -1 138.685 29.502)" fill="#292929"/>
<circle cx="4.97846" cy="4.97846" r="4.97846" transform="matrix(1 0 0 -1 135.735 30.9771)" fill="#4F4F4F"/>
<circle cx="3.50336" cy="3.50336" r="3.50336" transform="matrix(1 0 0 -1 137.21 29.502)" fill="black"/>
<circle cx="4.97846" cy="4.97846" r="4.97846" transform="matrix(1 0 0 -1 164.499 30.9771)" fill="#4F4F4F"/>
<circle cx="3.50336" cy="3.50336" r="3.50336" transform="matrix(1 0 0 -1 165.974 29.502)" fill="black"/>
<rect width="31.3459" height="6.63795" transform="matrix(1 0 0 -1 205.433 19.9138)" fill="#292929"/>
<circle cx="4.97846" cy="4.97846" r="4.97846" transform="matrix(1 0 0 -1 202.483 21.3889)" fill="#4F4F4F"/>
<circle cx="3.50336" cy="3.50336" r="3.50336" transform="matrix(1 0 0 -1 203.958 19.9138)" fill="black"/>
<circle cx="4.97846" cy="4.97846" r="4.97846" transform="matrix(1 0 0 -1 231.247 21.3889)" fill="#4F4F4F"/>
<circle cx="3.50336" cy="3.50336" r="3.50336" transform="matrix(1 0 0 -1 232.723 19.9138)" fill="black"/>
<rect width="31.3459" height="6.63795" transform="matrix(1 0 0 -1 272.182 29.502)" fill="#292929"/>
<circle cx="4.97846" cy="4.97846" r="4.97846" transform="matrix(1 0 0 -1 269.231 30.9771)" fill="#4F4F4F"/>
<circle cx="3.50336" cy="3.50336" r="3.50336" transform="matrix(1 0 0 -1 270.706 29.502)" fill="black"/>
<circle cx="4.97846" cy="4.97846" r="4.97846" transform="matrix(1 0 0 -1 297.996 30.9771)" fill="#4F4F4F"/>
<circle cx="3.50336" cy="3.50336" r="3.50336" transform="matrix(1 0 0 -1 299.471 29.502)" fill="black"/>
<rect width="31.3459" height="6.63795" transform="matrix(1 0 0 -1 338.93 20.2827)" fill="#292929"/>
<circle cx="4.97846" cy="4.97846" r="4.97846" transform="matrix(1 0 0 -1 335.979 21.7578)" fill="#4F4F4F"/>
<circle cx="3.50336" cy="3.50336" r="3.50336" transform="matrix(1 0 0 -1 337.455 20.2827)" fill="black"/>
<circle cx="4.97846" cy="4.97846" r="4.97846" transform="matrix(1 0 0 -1 364.744 21.7578)" fill="#4F4F4F"/>
<circle cx="3.50336" cy="3.50336" r="3.50336" transform="matrix(1 0 0 -1 366.219 20.2827)" fill="black"/>
<rect width="31.3459" height="6.63795" transform="matrix(1 0 0 -1 405.678 29.502)" fill="#292929"/>
<circle cx="4.97846" cy="4.97846" r="4.97846" transform="matrix(1 0 0 -1 402.728 30.9771)" fill="#4F4F4F"/>
<circle cx="3.50336" cy="3.50336" r="3.50336" transform="matrix(1 0 0 -1 404.203 29.502)" fill="black"/>
<circle cx="4.97846" cy="4.97846" r="4.97846" transform="matrix(1 0 0 -1 431.492 30.9771)" fill="#4F4F4F"/>
<circle cx="3.50336" cy="3.50336" r="3.50336" transform="matrix(1 0 0 -1 432.967 29.502)" fill="black"/>
<circle cx="4.24091" cy="4.24091" r="4.24091" transform="matrix(1 0 0 -1 95.9071 19.1763)" fill="#4F4F4F"/>
<circle cx="2.98434" cy="2.98434" r="2.98434" transform="matrix(1 0 0 -1 97.1637 17.9197)" fill="black"/>
<circle cx="2.04192" cy="2.04192" r="2.04192" transform="matrix(1 0 0 -1 98.1061 16.9773)" fill="#464646"/>
<path d="M760 1299V12L520 12" stroke="#A70101" stroke-width="4"/>
<path fill-rule="evenodd" clip-rule="evenodd" d="M522.477 13.8093C513.171 15.1229 504.569 16.3574 495.263 17.6711C495.421 18.679 495.353 19.6676 494.949 20.8279C504.308 26.3311 512.825 32.2856 522.184 37.7888C521.888 39.1154 521.443 39.9234 520.598 40.732C520.236 41.0848 520.036 41.2857 519.639 40.9289C519.34 40.6504 519.168 40.3129 519.134 40.0047C519.079 39.5203 518.663 39.3887 518.433 39.3254C510.902 35.8018 503.121 32.44 495.585 28.8723C494.802 28.6482 494.235 28.7566 493.692 29.0852C491.961 30.35 489.768 29.883 489.501 27.505C489.347 26.1399 488.578 25.2453 487.315 24.7184C483.164 23.8918 478.964 23.0261 474.813 22.1995C474.601 21.1085 474.556 19.9096 474.568 18.4366C478.259 18.7352 482.183 18.74 485.785 18.6473C486.072 17.6339 486.174 16.9536 486.071 16.4301C482.668 14.7167 477.771 12.8145 474.368 11.1011C474.528 10.1467 474.904 9.1234 475.74 8.22678C479.934 9.04843 485.373 10.6221 489.842 11.1009C490.61 11.1929 491.437 10.6095 491.832 9.76234C492.583 8.11709 494.114 7.45447 495.385 9.63055C495.831 10.4276 496.61 11.009 498.572 11.0114C505.918 10.8992 513.361 10.8652 520.706 10.753C520.774 10.5669 520.799 10.3858 520.916 10.2389C521.028 10.0479 521.287 9.97413 521.704 10.1057C521.978 10.1641 521.988 10.2522 522.149 10.5015C522.714 11.553 522.999 12.502 522.97 13.4416C522.834 13.8137 522.829 13.7697 522.477 13.8093Z" fill="#DE131B" stroke="black" stroke-width="0.184387" stroke-miterlimit="2.6131"/>
<path fill-rule="evenodd" clip-rule="evenodd" d="M521.199 13.5515C511.893 14.8652 502.499 16.1888 493.193 17.5024C493.35 18.5103 493.278 19.4549 492.874 20.6152C502.193 26.1674 511.543 31.9838 520.863 37.536C520.61 38.8576 520.166 39.6657 519.32 40.4742C518.998 40.778 518.807 41.067 518.459 40.7494C518.116 40.4758 517.896 40.0992 517.851 39.7029C517.797 39.2185 517.38 39.0869 517.15 39.0236C509.619 35.5 501.839 32.1382 494.303 28.5706C493.52 28.3465 492.952 28.4548 492.409 28.7834C490.679 30.0482 488.486 29.5812 488.218 27.2032C488.065 25.8381 487.295 24.9435 486.032 24.4166C481.881 23.59 477.681 22.7243 473.53 21.8977C473.319 20.8067 473.253 19.4317 473.222 17.9636C476.912 18.2623 480.989 18.4283 484.595 18.3796C484.575 17.4009 484.725 16.7597 484.93 16.2015C481.527 14.4882 477.727 12.8194 474.319 11.0621C474.479 10.1076 474.855 9.08431 475.69 8.18768C479.885 9.00934 484.091 10.3204 488.515 10.804C489.284 10.896 490.11 10.3126 490.505 9.46552C491.257 7.82027 492.788 7.15766 494.058 9.33372C494.504 10.1308 495.283 10.7122 497.246 10.7146C504.591 10.6024 512.034 10.5684 519.379 10.4562C519.506 9.99599 519.599 9.62884 520.372 9.76487C520.69 9.8183 520.695 9.86233 520.862 10.1557C521.426 11.2072 521.711 12.1562 521.688 13.1398C521.6 13.551 521.546 13.4679 521.199 13.5515Z" fill="#E30613" stroke="black" stroke-width="0.184387" stroke-miterlimit="2.6131"/>
<path fill-rule="evenodd" clip-rule="evenodd" d="M493.227 17.8107C492.905 14.9483 490.705 12.8322 488.327 13.0995C485.949 13.3668 484.274 15.9185 484.596 18.781C484.918 21.6434 487.118 23.7595 489.496 23.4922C491.869 23.1809 493.549 20.6731 493.227 17.8107Z" fill="#E63312" stroke="black" stroke-width="0.184387" stroke-miterlimit="2.6131"/>
<path fill-rule="evenodd" clip-rule="evenodd" d="M492.655 17.875C492.363 15.2768 490.319 13.366 488.118 13.6135C485.916 13.861 484.348 16.1777 484.64 18.7759C484.932 21.3741 486.975 23.2849 489.177 23.0374C491.379 22.7899 492.947 20.4731 492.655 17.875Z" fill="#E30613" stroke="black" stroke-width="0.184387" stroke-miterlimit="2.6131"/>
<path fill-rule="evenodd" clip-rule="evenodd" d="M489.317 17.9381C489.248 17.3216 488.797 16.8818 488.269 16.9412C487.74 17.0006 487.398 17.5295 487.468 18.146C487.537 18.7626 487.988 19.2024 488.516 19.143C489.045 19.0836 489.387 18.5547 489.317 17.9381Z" fill="#D8161E" stroke="black" stroke-width="0.184387" stroke-miterlimit="2.6131"/>
<path fill-rule="evenodd" clip-rule="evenodd" d="M484.551 18.3846C480.852 18.3991 477.044 18.2474 473.168 17.8805C473.412 17.6746 473.706 17.5078 473.999 17.3411C477.543 17.5225 481.042 17.7089 484.541 17.8952C484.561 18.0714 484.581 18.2475 484.551 18.3846Z" fill="#DC2311" stroke="black" stroke-width="0.184387" stroke-miterlimit="2.6131" stroke-linecap="round" stroke-linejoin="round"/>
<path fill-rule="evenodd" clip-rule="evenodd" d="M521.89 10.174C522.66 11.4699 523.018 12.6782 522.829 13.7697C522.418 13.6821 522.007 13.5946 521.595 13.507C521.707 12.5135 521.456 11.4714 520.897 10.464C520.784 10.2537 520.676 10.0875 520.563 9.87722C520.969 9.92074 521.425 10.0034 521.89 10.174Z" fill="#DC2311" stroke="black" stroke-width="0.184387" stroke-miterlimit="2.6131"/>
<path fill-rule="evenodd" clip-rule="evenodd" d="M520.104 41.0997C520.989 40.6434 521.981 39.1496 522.18 37.7448C521.729 37.7062 521.313 37.5746 520.907 37.5311C520.796 38.5247 520.244 39.5677 519.403 40.4203C519.242 40.5722 519.213 40.7093 518.743 40.8959C519.111 40.9884 519.62 41.1541 520.104 41.0997Z" fill="#DC2311" stroke="black" stroke-width="0.184387" stroke-miterlimit="2.6131"/>
<path d="M494.42 20.8872C494.971 19.4428 495.078 18.4052 494.71 17.5102M493.965 20.8046C494.516 19.3602 494.637 18.4547 494.23 17.6086M493.456 20.6388C494.007 19.1945 494.114 18.5582 493.751 17.7071" stroke="black" stroke-width="0.184387" stroke-miterlimit="2.6131"/>
<path fill-rule="evenodd" clip-rule="evenodd" d="M476.486 18.0425L473.476 17.8457L474.224 17.3603L476.931 17.6357L476.486 18.0425Z" fill="#C1994B"/>
<path fill-rule="evenodd" clip-rule="evenodd" d="M473.607 17.0284L473.647 17.3807L473.691 17.7771L473.98 17.5663L474.268 17.3555L473.935 17.1699L473.607 17.0284Z" fill="#D7B46A"/>
<path fill-rule="evenodd" clip-rule="evenodd" d="M473.436 17.0922L473.481 17.4885L473.52 17.8408L473.809 17.63L474.102 17.4632L473.769 17.2777L473.436 17.0922Z" fill="#D7B46A"/>
<path fill-rule="evenodd" clip-rule="evenodd" d="M473.231 17.2492L473.378 17.7677L473.476 17.8459L473.603 17.787L473.897 17.6202L473.564 17.4347L473.231 17.2492Z" fill="#D7B46A"/>
<path fill-rule="evenodd" clip-rule="evenodd" d="M476.412 17.3821L476.491 17.6854L476.574 18.0327L476.814 17.7828L477.014 17.5819L476.735 17.4795L476.412 17.3821Z" fill="#D7B46A"/>
<path fill-rule="evenodd" clip-rule="evenodd" d="M476.246 17.4899L476.324 17.7932L476.447 18.0916L476.647 17.8907L476.892 17.6848L476.569 17.5874L476.246 17.4899Z" fill="#D7B46A"/>
<path fill-rule="evenodd" clip-rule="evenodd" d="M476.133 17.6808L476.271 18.1112L476.408 18.1404L476.491 18.0865L476.731 17.8366L476.412 17.7832L476.133 17.6808Z" fill="#D7B46A"/>
<path fill-rule="evenodd" clip-rule="evenodd" d="M484.886 16.2064C481.576 14.5272 477.874 12.5353 474.28 11.111C474.447 11.4044 474.54 11.4385 474.706 11.7319C477.943 13.1518 481.596 15.1046 484.833 16.5245C484.906 16.3825 484.813 16.3484 484.886 16.2064Z" fill="#DC2311" stroke="black" stroke-width="0.184387" stroke-miterlimit="2.6131" stroke-linecap="round" stroke-linejoin="round"/>
<path fill-rule="evenodd" clip-rule="evenodd" d="M477.09 12.3113L474.51 11.1744L474.902 11.8884L477.346 12.9961L477.09 12.3113Z" fill="#C1994B"/>
<path fill-rule="evenodd" clip-rule="evenodd" d="M476.754 12.8843L476.949 12.6394L477.193 12.4335L477.272 12.7368L477.346 12.9961L477.028 12.9427L476.754 12.8843Z" fill="#D7B46A"/>
<path fill-rule="evenodd" clip-rule="evenodd" d="M476.695 12.757L476.895 12.5561L477.134 12.3062L477.213 12.6095L477.292 12.9128L476.969 12.8154L476.695 12.757Z" fill="#D7B46A"/>
<path fill-rule="evenodd" clip-rule="evenodd" d="M476.67 12.5368L476.997 12.277L477.09 12.3112L477.144 12.3943L477.218 12.6536L476.944 12.5952L476.67 12.5368Z" fill="#D7B46A"/>
<path fill-rule="evenodd" clip-rule="evenodd" d="M474.305 11.7326L474.462 11.5366L474.662 11.3357L474.78 11.5901L474.902 11.8884L474.623 11.786L474.305 11.7326Z" fill="#D7B46A"/>
<path fill-rule="evenodd" clip-rule="evenodd" d="M474.202 11.6103L474.403 11.4094L474.603 11.2085L474.721 11.4629L474.844 11.7612L474.525 11.7078L474.202 11.6103Z" fill="#D7B46A"/>
<path fill-rule="evenodd" clip-rule="evenodd" d="M474.134 11.395L474.461 11.1352L474.554 11.1694L474.652 11.2475L474.775 11.5459L474.457 11.4925L474.134 11.395Z" fill="#D7B46A"/>
<path fill-rule="evenodd" clip-rule="evenodd" d="M762.647 1299.02C758.071 1307.23 753.857 1314.83 749.281 1323.04C750.18 1323.53 750.927 1324.18 751.607 1325.2C761.647 1321.07 771.538 1317.88 781.578 1313.75C782.456 1314.78 782.831 1315.63 782.964 1316.79C783.027 1317.29 783.066 1317.57 782.542 1317.67C782.139 1317.74 781.767 1317.67 781.5 1317.51C781.081 1317.27 780.725 1317.52 780.536 1317.66C773.178 1321.53 765.798 1325.7 758.402 1329.55C757.75 1330.04 757.494 1330.56 757.427 1331.19C757.39 1333.33 755.692 1334.8 753.636 1333.57C752.456 1332.87 751.278 1332.95 750.095 1333.63C746.928 1336.44 743.701 1339.27 740.534 1342.07C739.537 1341.58 738.554 1340.89 737.388 1339.99C739.855 1337.23 742.231 1334.11 744.333 1331.18C743.699 1330.34 743.218 1329.85 742.739 1329.62C739.317 1331.29 734.843 1334.05 731.422 1335.72C730.758 1335.02 730.169 1334.1 729.96 1332.89C733.149 1330.05 737.689 1326.66 740.771 1323.39C741.308 1322.84 741.343 1321.82 740.907 1321C740.05 1319.4 740.447 1317.78 742.948 1318.09C743.853 1318.21 744.787 1317.94 745.974 1316.38C750.323 1310.46 754.793 1304.51 759.142 1298.59C759.035 1298.42 758.905 1298.29 758.859 1298.11C758.774 1297.91 758.872 1297.65 759.229 1297.4C759.441 1297.22 759.517 1297.26 759.813 1297.29C760.992 1297.47 761.92 1297.82 762.652 1298.41C762.866 1298.74 762.828 1298.72 762.647 1299.02Z" fill="#DE131B" stroke="black" stroke-width="0.184387" stroke-miterlimit="2.6131"/>
<path fill-rule="evenodd" clip-rule="evenodd" d="M761.669 1299.89C757.093 1308.1 752.472 1316.38 747.896 1324.59C748.795 1325.07 749.504 1325.7 750.184 1326.72C760.239 1322.65 770.523 1318.72 780.578 1314.65C781.478 1315.65 781.854 1316.49 781.987 1317.65C782.034 1318.09 782.15 1318.42 781.686 1318.5C781.261 1318.61 780.828 1318.56 780.485 1318.35C780.066 1318.11 779.71 1318.36 779.52 1318.5C772.162 1322.37 764.783 1326.54 757.387 1330.39C756.735 1330.88 756.478 1331.4 756.412 1332.03C756.374 1334.17 754.677 1335.64 752.621 1334.41C751.44 1333.71 750.263 1333.78 749.079 1334.47C745.913 1337.28 742.685 1340.1 739.519 1342.91C738.521 1342.42 737.386 1341.64 736.197 1340.78C738.665 1338.02 741.261 1334.87 743.401 1331.97C742.608 1331.4 742.189 1330.89 741.868 1330.39C738.446 1332.06 734.821 1334.08 731.361 1335.74C730.697 1335.03 730.109 1334.12 729.899 1332.91C733.089 1330.06 736.674 1327.5 739.733 1324.27C740.27 1323.71 740.305 1322.7 739.869 1321.88C739.012 1320.28 739.409 1318.66 741.91 1318.96C742.815 1319.09 743.749 1318.82 744.936 1317.26C749.285 1311.34 753.755 1305.39 758.104 1299.47C757.813 1299.09 757.577 1298.79 758.152 1298.26C758.387 1298.04 758.425 1298.06 758.76 1298.1C759.939 1298.29 760.867 1298.64 761.637 1299.25C761.912 1299.57 761.813 1299.56 761.669 1299.89Z" fill="#E30613" stroke="black" stroke-width="0.184387" stroke-miterlimit="2.6131"/>
<path fill-rule="evenodd" clip-rule="evenodd" d="M748.163 1324.75C745.687 1323.28 742.672 1323.75 741.448 1325.81C740.224 1327.86 741.246 1330.74 743.721 1332.21C746.196 1333.69 749.212 1333.21 750.435 1331.15C751.621 1329.08 750.638 1326.22 748.163 1324.75Z" fill="#E63312" stroke="black" stroke-width="0.184387" stroke-miterlimit="2.6131"/>
<path fill-rule="evenodd" clip-rule="evenodd" d="M747.868 1325.24C745.621 1323.91 742.864 1324.38 741.731 1326.28C740.598 1328.19 741.497 1330.84 743.744 1332.17C745.99 1333.51 748.747 1333.04 749.881 1331.13C751.014 1329.23 750.115 1326.58 747.868 1325.24Z" fill="#E30613" stroke="black" stroke-width="0.184387" stroke-miterlimit="2.6131"/>
<path fill-rule="evenodd" clip-rule="evenodd" d="M745.902 1327.94C745.369 1327.62 744.746 1327.72 744.474 1328.17C744.202 1328.63 744.417 1329.22 744.95 1329.54C745.483 1329.86 746.106 1329.76 746.378 1329.31C746.65 1328.85 746.435 1328.26 745.902 1327.94Z" fill="#D8161E" stroke="black" stroke-width="0.184387" stroke-miterlimit="2.6131"/>
<path fill-rule="evenodd" clip-rule="evenodd" d="M743.378 1332.01C741.154 1334.97 738.733 1337.91 736.099 1340.77C736.082 1340.46 736.127 1340.12 736.171 1339.79C738.457 1337.07 740.719 1334.4 742.982 1331.72C743.134 1331.81 743.287 1331.9 743.378 1332.01Z" fill="#DC2311" stroke="black" stroke-width="0.184387" stroke-miterlimit="2.6131" stroke-linecap="round" stroke-linejoin="round"/>
<path fill-rule="evenodd" clip-rule="evenodd" d="M759.395 1297.3C760.893 1297.46 762.073 1297.91 762.828 1298.72C762.51 1298.99 762.192 1299.27 761.873 1299.54C761.149 1298.85 760.167 1298.42 759.026 1298.26C758.791 1298.22 758.593 1298.21 758.357 1298.17C758.637 1297.88 758.978 1297.56 759.395 1297.3Z" fill="#DC2311" stroke="black" stroke-width="0.184387" stroke-miterlimit="2.6131"/>
<path fill-rule="evenodd" clip-rule="evenodd" d="M782.959 1317.4C783.13 1316.42 782.539 1314.73 781.54 1313.72C781.237 1314.06 780.881 1314.31 780.601 1314.61C781.325 1315.3 781.823 1316.37 781.994 1317.55C782.018 1317.77 782.11 1317.88 781.975 1318.36C782.27 1318.13 782.71 1317.82 782.959 1317.4Z" fill="#DC2311" stroke="black" stroke-width="0.184387" stroke-miterlimit="2.6131"/>
<path d="M751.335 1325.66C750.517 1324.34 749.755 1323.63 748.819 1323.39M750.994 1325.97C750.176 1324.66 749.528 1324.01 748.608 1323.83M750.555 1326.28C749.737 1324.96 749.294 1324.49 748.397 1324.27" stroke="black" stroke-width="0.184387" stroke-miterlimit="2.6131"/>
<path fill-rule="evenodd" clip-rule="evenodd" d="M738.233 1338.23L736.257 1340.51L736.322 1339.62L738.177 1337.63L738.233 1338.23Z" fill="#C1994B"/>
<path fill-rule="evenodd" clip-rule="evenodd" d="M735.685 1339.91L735.99 1340.09L736.332 1340.29L736.339 1339.94L736.345 1339.58L735.996 1339.73L735.685 1339.91Z" fill="#D7B46A"/>
<path fill-rule="evenodd" clip-rule="evenodd" d="M735.633 1340.08L735.975 1340.29L736.28 1340.47L736.286 1340.11L736.331 1339.78L735.982 1339.93L735.633 1340.08Z" fill="#D7B46A"/>
<path fill-rule="evenodd" clip-rule="evenodd" d="M735.633 1340.34L736.136 1340.54L736.257 1340.51L736.287 1340.37L736.332 1340.04L735.983 1340.19L735.633 1340.34Z" fill="#D7B46A"/>
<path fill-rule="evenodd" clip-rule="evenodd" d="M737.662 1337.89L737.951 1338.01L738.278 1338.15L738.224 1337.81L738.185 1337.53L737.934 1337.69L737.662 1337.89Z" fill="#D7B46A"/>
<path fill-rule="evenodd" clip-rule="evenodd" d="M737.647 1338.09L737.936 1338.21L738.248 1338.29L738.209 1338.01L738.193 1337.69L737.92 1337.89L737.647 1338.09Z" fill="#D7B46A"/>
<path fill-rule="evenodd" clip-rule="evenodd" d="M737.731 1338.29L738.157 1338.44L738.264 1338.35L738.271 1338.25L738.216 1337.91L737.982 1338.13L737.731 1338.29Z" fill="#D7B46A"/>
<path fill-rule="evenodd" clip-rule="evenodd" d="M741.845 1330.43C738.507 1332.05 734.683 1333.8 731.376 1335.8C731.711 1335.84 731.794 1335.79 732.129 1335.83C735.216 1334.11 738.979 1332.38 742.066 1330.66C741.997 1330.52 741.914 1330.57 741.845 1330.43Z" fill="#DC2311" stroke="black" stroke-width="0.184387" stroke-miterlimit="2.6131" stroke-linecap="round" stroke-linejoin="round"/>
<path fill-rule="evenodd" clip-rule="evenodd" d="M734.031 1334.28L731.566 1335.65L732.372 1335.77L734.731 1334.49L734.031 1334.28Z" fill="#C1994B"/>
<path fill-rule="evenodd" clip-rule="evenodd" d="M734.284 1334.9L734.207 1334.6L734.191 1334.28L734.48 1334.4L734.731 1334.49L734.496 1334.72L734.284 1334.9Z" fill="#D7B46A"/>
<path fill-rule="evenodd" clip-rule="evenodd" d="M734.147 1334.87L734.108 1334.59L734.053 1334.25L734.343 1334.37L734.632 1334.49L734.359 1334.69L734.147 1334.87Z" fill="#D7B46A"/>
<path fill-rule="evenodd" clip-rule="evenodd" d="M733.957 1334.76L733.947 1334.34L734.031 1334.28L734.13 1334.29L734.381 1334.39L734.169 1334.57L733.957 1334.76Z" fill="#D7B46A"/>
<path fill-rule="evenodd" clip-rule="evenodd" d="M731.887 1336.15L731.825 1335.91L731.786 1335.63L732.06 1335.69L732.372 1335.77L732.122 1335.93L731.887 1336.15Z" fill="#D7B46A"/>
<path fill-rule="evenodd" clip-rule="evenodd" d="M731.727 1336.16L731.688 1335.88L731.649 1335.6L731.923 1335.66L732.235 1335.74L732 1335.96L731.727 1336.16Z" fill="#D7B46A"/>
<path fill-rule="evenodd" clip-rule="evenodd" d="M731.514 1336.09L731.505 1335.67L731.589 1335.62L731.71 1335.58L732.022 1335.67L731.787 1335.89L731.514 1336.09Z" fill="#D7B46A"/>
<path d="M66.9905 14.9353L42 14.9353L42 1365L254 1365" stroke="black" stroke-opacity="0.7" stroke-width="4"/>
<g clip-path="url(#clip0_143_392)">
<path fill-rule="evenodd" clip-rule="evenodd" d="M60.7999 16.3402C68.5875 17.0637 75.7863 17.7492 83.574 18.4727C83.4826 19.3168 83.5777 20.1359 83.96 21.0844C76.3984 26.0294 69.5539 31.3163 61.9923 36.2613C62.2915 37.3522 62.6928 38.0063 63.4277 38.6449C63.7423 38.9239 63.9168 39.0829 64.2326 38.7707C64.47 38.5273 64.5994 38.24 64.616 37.9824C64.642 37.5776 64.9827 37.4517 65.1715 37.39C71.292 34.1628 77.6263 31.0604 83.7492 27.7964C84.3915 27.5791 84.8675 27.6468 85.3317 27.8984C86.8204 28.8812 88.6248 28.4062 88.7529 26.4189C88.8264 25.2781 89.4306 24.5041 90.4598 24.0161C93.8774 23.1646 97.3343 22.2787 100.752 21.4273C100.885 20.512 100.875 19.5136 100.806 18.2897C97.7507 18.6841 94.4884 18.8434 91.4909 18.9089C91.2119 18.078 91.1003 17.5165 91.1655 17.0772C93.9267 15.5183 97.9212 13.7432 100.682 12.1843C100.511 11.3972 100.159 10.5615 99.4285 9.84931C95.974 10.6984 91.5153 12.2218 87.8198 12.7967C87.1847 12.9036 86.4748 12.4514 86.1127 11.7629C85.4228 10.425 84.1241 9.93487 83.1543 11.794C82.8149 12.4742 82.1905 12.9883 80.5594 13.068C74.4493 13.2656 68.2608 13.532 62.1506 13.7296C62.0865 13.5776 62.0592 13.428 61.9559 13.3105C61.855 13.1562 61.6366 13.1052 61.2959 13.231C61.0703 13.2904 61.0656 13.364 60.9409 13.5777C60.5137 14.474 60.3143 15.2742 60.3749 16.0541C60.5031 16.358 60.5055 16.3212 60.7999 16.3402Z" fill="black" stroke="#282727" stroke-width="0.184387" stroke-miterlimit="2.6131"/>
<path fill-rule="evenodd" clip-rule="evenodd" d="M61.8516 16.0752C69.6392 16.7987 77.5005 17.5269 85.2881 18.2504C85.1968 19.0945 85.2942 19.8768 85.6765 20.8253C78.1493 25.8095 70.6079 31.0145 63.0808 35.9987C63.3432 37.0872 63.7445 37.7413 64.4794 38.3799C64.7596 38.6197 64.9294 38.8524 65.2059 38.5746C65.4802 38.3336 65.6487 38.0118 65.67 37.6806C65.6961 37.2758 66.0368 37.1499 66.2256 37.0882C72.3461 33.8611 78.6804 30.7586 84.8033 27.4946C85.4455 27.2774 85.9216 27.345 86.3858 27.5966C87.8745 28.5794 89.6789 28.1044 89.807 26.1172C89.8805 24.9763 90.4846 24.2023 91.5138 23.7143C94.9315 22.8628 98.3884 21.9769 101.806 21.1255C101.939 20.2102 101.939 19.0646 101.907 17.8431C98.851 18.2374 95.4689 18.5369 92.4691 18.6392C92.4476 17.8249 92.2968 17.2978 92.1045 16.8419C94.8656 15.283 97.9579 13.7454 100.721 12.1497C100.55 11.3626 100.198 10.5269 99.4676 9.81472C96.0132 10.6638 92.5694 11.9201 88.9107 12.4973C88.2756 12.6042 87.5657 12.152 87.2036 11.4635C86.5137 10.1256 85.215 9.63546 84.2452 11.4946C83.9058 12.1748 83.2814 12.6889 81.6503 12.7686C75.5401 12.9662 69.3517 13.2326 63.2415 13.4302C63.118 13.0527 63.0266 12.7511 62.3891 12.8948C62.1268 12.9518 62.1244 12.9886 61.9974 13.2391C61.5701 14.1355 61.3707 14.9356 61.429 15.7523C61.518 16.0907 61.5596 16.0194 61.8516 16.0752Z" fill="black" stroke="#3C3C3B" stroke-width="0.184387" stroke-miterlimit="2.6131"/>
<path fill-rule="evenodd" clip-rule="evenodd" d="M85.2715 18.508C85.4256 16.116 87.1706 14.2698 89.1578 14.3979C91.1451 14.5259 92.6387 16.5807 92.4845 18.9728C92.3304 21.3649 90.5855 23.211 88.5982 23.083C86.6133 22.9181 85.1174 20.9001 85.2715 18.508Z" fill="#3C3C3B" stroke="#282727" stroke-width="0.184387" stroke-miterlimit="2.6131"/>
<path fill-rule="evenodd" clip-rule="evenodd" d="M85.7499 18.5388C85.8898 16.3676 87.5125 14.6983 89.3526 14.8169C91.1926 14.9355 92.5876 16.7991 92.4477 18.9704C92.3078 21.1417 90.6852 22.8109 88.8451 22.6923C87.0051 22.5738 85.61 20.7101 85.7499 18.5388Z" fill="black" stroke="#282727" stroke-width="0.184387" stroke-miterlimit="2.6131"/>
<path fill-rule="evenodd" clip-rule="evenodd" d="M88.5267 18.4591C88.5599 17.9439 88.9172 17.5604 89.3588 17.5889C89.8004 17.6173 90.1055 18.0435 90.0723 18.5587C90.0391 19.0739 89.6818 19.4574 89.2402 19.4289C88.7986 19.4005 88.4935 18.9743 88.5267 18.4591Z" fill="black" stroke="#3C3C3B" stroke-width="0.184387" stroke-miterlimit="2.6131"/>
<path fill-rule="evenodd" clip-rule="evenodd" d="M92.5059 18.6415C95.5818 18.5071 98.7407 18.2303 101.948 17.7718C101.737 17.6103 101.486 17.4833 101.236 17.3563C98.2978 17.6474 95.3965 17.9409 92.4952 18.2343C92.4857 18.3816 92.4762 18.5288 92.5059 18.6415Z" fill="#3C3C3B" stroke="black" stroke-width="0.184387" stroke-miterlimit="2.6131" stroke-linecap="round" stroke-linejoin="round"/>
<path fill-rule="evenodd" clip-rule="evenodd" d="M61.1439 13.2951C60.5552 14.4028 60.3048 15.4213 60.5055 16.3212C60.8438 16.2321 61.1821 16.143 61.5205 16.054C61.3886 15.2325 61.5559 14.3564 61.9809 13.4969C62.0663 13.3176 62.1494 13.1751 62.2349 12.9959C61.8989 13.0481 61.5238 13.1348 61.1439 13.2951Z" fill="#282727" stroke="black" stroke-width="0.184387" stroke-miterlimit="2.6131"/>
<path fill-rule="evenodd" clip-rule="evenodd" d="M63.8527 38.931C63.0988 38.5867 62.2155 37.3843 61.9946 36.2245C62.3674 36.1746 62.708 36.0487 63.044 35.9964C63.1758 36.8179 63.6757 37.6631 64.4082 38.3385C64.5483 38.4584 64.578 38.5712 64.9757 38.7077C64.6742 38.7991 64.2575 38.957 63.8527 38.931Z" fill="#282727" stroke="black" stroke-width="0.184387" stroke-miterlimit="2.6131"/>
<path d="M84.4016 21.1127C83.8863 19.9339 83.7568 19.0756 84.0274 18.317M84.7768 21.026C84.2614 19.8472 84.1249 19.0993 84.4299 18.3799M85.1934 20.8681C84.6781 19.6893 84.5641 19.1646 84.8323 18.4428" stroke="#282727" stroke-width="0.184387" stroke-miterlimit="2.6131"/>
<path fill-rule="evenodd" clip-rule="evenodd" d="M99.1966 18.038L101.691 17.7553L101.05 17.3814L98.8107 17.7176L99.1966 18.038Z" fill="#C1994B"/>
<path fill-rule="evenodd" clip-rule="evenodd" d="M101.549 17.0809L101.53 17.3753L101.509 17.7065L101.261 17.5427L101.013 17.3789L101.282 17.2115L101.549 17.0809Z" fill="#D7B46A"/>
<path fill-rule="evenodd" clip-rule="evenodd" d="M101.694 17.1273L101.673 17.4585L101.654 17.7529L101.406 17.5891L101.155 17.4621L101.425 17.2947L101.694 17.1273Z" fill="#D7B46A"/>
<path fill-rule="evenodd" clip-rule="evenodd" d="M101.871 17.2494L101.769 17.6863L101.691 17.7552L101.583 17.7112L101.332 17.5842L101.602 17.4168L101.871 17.2494Z" fill="#D7B46A"/>
<path fill-rule="evenodd" clip-rule="evenodd" d="M99.2321 17.4861L99.1787 17.7414L99.123 18.0334L98.914 17.8352L98.7395 17.6761L98.9674 17.5799L99.2321 17.4861Z" fill="#D7B46A"/>
<path fill-rule="evenodd" clip-rule="evenodd" d="M99.3746 17.569L99.3212 17.8242L99.231 18.0771L99.0565 17.918L98.8451 17.7566L99.1099 17.6628L99.3746 17.569Z" fill="#D7B46A"/>
<path fill-rule="evenodd" clip-rule="evenodd" d="M99.4754 17.7234L99.3781 18.0867L99.2654 18.1164L99.1941 18.0748L98.9852 17.8766L99.2475 17.8196L99.4754 17.7234Z" fill="#D7B46A"/>
<path fill-rule="evenodd" clip-rule="evenodd" d="M92.1414 16.8444C94.8265 15.3176 97.825 13.5153 100.756 12.189C100.629 12.4395 100.553 12.4716 100.426 12.722C97.7919 14.0305 94.8325 15.7984 92.1984 17.1068C92.1319 16.9916 92.2078 16.9596 92.1414 16.8444Z" fill="#3C3C3B" stroke="black" stroke-width="0.184387" stroke-miterlimit="2.6131" stroke-linecap="round" stroke-linejoin="round"/>
<path fill-rule="evenodd" clip-rule="evenodd" d="M98.4672 13.2979L100.567 12.2506L100.269 12.8597L98.2821 13.8772L98.4672 13.2979Z" fill="#C1994B"/>
<path fill-rule="evenodd" clip-rule="evenodd" d="M98.77 13.7608L98.5979 13.565L98.3865 13.4035L98.3331 13.6588L98.2821 13.8772L98.5445 13.8202L98.77 13.7608Z" fill="#D7B46A"/>
<path fill-rule="evenodd" clip-rule="evenodd" d="M98.8139 13.6527L98.6394 13.4937L98.4304 13.2954L98.377 13.5507L98.3236 13.8059L98.5883 13.7121L98.8139 13.6527Z" fill="#D7B46A"/>
<path fill-rule="evenodd" clip-rule="evenodd" d="M98.8257 13.4687L98.5432 13.2657L98.4672 13.2977L98.4257 13.369L98.3746 13.5874L98.6002 13.528L98.8257 13.4687Z" fill="#D7B46A"/>
<path fill-rule="evenodd" clip-rule="evenodd" d="M100.76 12.7064L100.622 12.5497L100.447 12.3907L100.359 12.6068L100.269 12.8596L100.497 12.7634L100.76 12.7064Z" fill="#D7B46A"/>
<path fill-rule="evenodd" clip-rule="evenodd" d="M100.84 12.6009L100.666 12.4418L100.491 12.2828L100.403 12.4988L100.313 12.7517L100.575 12.6947L100.84 12.6009Z" fill="#D7B46A"/>
<path fill-rule="evenodd" clip-rule="evenodd" d="M100.889 12.4193L100.606 12.2163L100.53 12.2483L100.452 12.3172L100.362 12.5701L100.624 12.5131L100.889 12.4193Z" fill="#D7B46A"/>
</g>
<g clip-path="url(#clip1_143_392)">
<path fill-rule="evenodd" clip-rule="evenodd" d="M245.234 1384.03C252.934 1385.4 260.056 1386.65 267.755 1388.02C267.892 1387.19 268.201 1386.42 268.822 1385.61C262.847 1378.83 257.654 1371.92 251.679 1365.14C252.258 1364.17 252.819 1363.64 253.697 1363.22C254.074 1363.04 254.285 1362.93 254.506 1363.32C254.67 1363.61 254.719 1363.92 254.666 1364.18C254.584 1364.57 254.879 1364.79 255.044 1364.9C260.087 1369.63 265.368 1374.31 270.403 1379.08C270.964 1379.46 271.441 1379.52 271.956 1379.41C273.652 1378.85 275.265 1379.79 274.86 1381.74C274.628 1382.86 275.005 1383.77 275.867 1384.51C278.935 1386.24 282.032 1388.01 285.101 1389.74C284.986 1390.66 284.711 1391.62 284.319 1392.78C281.478 1391.59 278.376 1390.57 275.504 1389.71C275.014 1390.44 274.757 1390.95 274.703 1391.39C276.95 1393.63 280.329 1396.4 282.576 1398.64C282.202 1399.35 281.64 1400.06 280.747 1400.55C277.643 1398.82 273.749 1396.16 270.34 1394.63C269.756 1394.35 268.951 1394.6 268.419 1395.17C267.398 1396.27 266.016 1396.4 265.575 1394.35C265.429 1393.61 264.964 1392.94 263.413 1392.43C257.575 1390.62 251.68 1388.72 245.842 1386.9C245.74 1387.03 245.674 1387.17 245.543 1387.25C245.405 1387.38 245.181 1387.37 244.886 1387.16C244.684 1387.04 244.699 1386.97 244.636 1386.73C244.462 1385.75 244.482 1384.92 244.748 1384.19C244.953 1383.93 244.945 1383.97 245.234 1384.03Z" fill="black" stroke="#282727" stroke-width="0.184387" stroke-miterlimit="2.6131"/>
<path fill-rule="evenodd" clip-rule="evenodd" d="M246.177 1384.56C253.877 1385.93 261.649 1387.32 269.349 1388.69C269.485 1387.86 269.787 1387.13 270.408 1386.32C264.477 1379.51 258.59 1372.49 252.659 1365.68C253.201 1364.7 253.762 1364.18 254.64 1363.76C254.974 1363.6 255.2 1363.42 255.392 1363.76C255.593 1364.07 255.67 1364.42 255.602 1364.75C255.52 1365.15 255.815 1365.36 255.98 1365.47C261.023 1370.2 266.304 1374.88 271.339 1379.65C271.9 1380.03 272.377 1380.1 272.892 1379.98C274.588 1379.42 276.201 1380.36 275.796 1382.31C275.564 1383.43 275.941 1384.34 276.803 1385.08C279.871 1386.81 282.968 1388.58 286.037 1390.31C285.922 1391.23 285.617 1392.34 285.261 1393.51C282.42 1392.31 279.24 1391.12 276.375 1390.23C276.138 1391.01 275.852 1391.48 275.546 1391.86C277.793 1394.1 280.365 1396.41 282.605 1398.68C282.231 1399.39 281.669 1400.1 280.776 1400.6C277.671 1398.86 274.685 1396.73 271.312 1395.2C270.728 1394.93 269.923 1395.18 269.391 1395.75C268.37 1396.85 266.988 1396.98 266.548 1394.93C266.401 1394.18 265.936 1393.52 264.385 1393.01C258.547 1391.2 252.652 1389.3 246.814 1387.48C246.595 1387.81 246.426 1388.08 245.85 1387.77C245.612 1387.65 245.62 1387.61 245.564 1387.33C245.39 1386.36 245.411 1385.53 245.684 1384.76C245.86 1384.46 245.881 1384.54 246.177 1384.56Z" fill="black" stroke="#3C3C3B" stroke-width="0.184387" stroke-miterlimit="2.6131"/>
<path fill-rule="evenodd" clip-rule="evenodd" d="M269.401 1388.44C268.914 1390.79 270.105 1393.03 272.055 1393.44C274.005 1393.84 275.991 1392.26 276.478 1389.91C276.966 1387.56 275.774 1385.32 273.825 1384.92C271.867 1384.55 269.889 1386.09 269.401 1388.44Z" fill="#3C3C3B" stroke="#282727" stroke-width="0.184387" stroke-miterlimit="2.6131"/>
<path fill-rule="evenodd" clip-rule="evenodd" d="M269.871 1388.54C269.429 1390.67 270.549 1392.71 272.354 1393.09C274.16 1393.46 276 1392.03 276.442 1389.9C276.885 1387.77 275.764 1385.73 273.959 1385.36C272.153 1384.98 270.313 1386.41 269.871 1388.54Z" fill="black" stroke="#282727" stroke-width="0.184387" stroke-miterlimit="2.6131"/>
<path fill-rule="evenodd" clip-rule="evenodd" d="M272.526 1389.35C272.421 1389.86 272.664 1390.32 273.097 1390.41C273.53 1390.5 273.938 1390.17 274.043 1389.67C274.148 1389.16 273.905 1388.7 273.472 1388.61C273.039 1388.52 272.631 1388.85 272.526 1389.35Z" fill="black" stroke="#3C3C3B" stroke-width="0.184387" stroke-miterlimit="2.6131"/>
<path fill-rule="evenodd" clip-rule="evenodd" d="M276.411 1390.24C279.34 1391.18 282.312 1392.29 285.282 1393.58C285.036 1393.68 284.76 1393.74 284.485 1393.8C281.73 1392.73 279.011 1391.68 276.292 1390.63C276.322 1390.48 276.352 1390.34 276.411 1390.24Z" fill="#3C3C3B" stroke="black" stroke-width="0.184387" stroke-miterlimit="2.6131" stroke-linecap="round" stroke-linejoin="round"/>
<path fill-rule="evenodd" clip-rule="evenodd" d="M244.756 1387.05C244.483 1385.83 244.512 1384.78 244.945 1383.97C245.248 1384.14 245.55 1384.32 245.853 1384.49C245.507 1385.25 245.435 1386.14 245.617 1387.08C245.651 1387.28 245.693 1387.44 245.728 1387.63C245.418 1387.49 245.08 1387.31 244.756 1387.05Z" fill="#282727" stroke="black" stroke-width="0.184387" stroke-miterlimit="2.6131"/>
<path fill-rule="evenodd" clip-rule="evenodd" d="M254.183 1363.06C253.364 1363.19 252.193 1364.12 251.672 1365.17C252.018 1365.32 252.313 1365.53 252.623 1365.67C252.968 1364.92 253.675 1364.23 254.561 1363.78C254.728 1363.7 254.786 1363.6 255.206 1363.57C254.939 1363.41 254.58 1363.14 254.183 1363.06Z" fill="#282727" stroke="black" stroke-width="0.184387" stroke-miterlimit="2.6131"/>
<path d="M269.255 1385.7C268.445 1386.7 268.092 1387.49 268.151 1388.3M269.594 1385.88C268.784 1386.88 268.453 1387.57 268.556 1388.34M269.954 1386.15C269.143 1387.15 268.894 1387.62 268.961 1388.39" stroke="#282727" stroke-width="0.184387" stroke-miterlimit="2.6131"/>
<path fill-rule="evenodd" clip-rule="evenodd" d="M282.7 1392.6L285.029 1393.53L284.312 1393.72L282.243 1392.8L282.7 1392.6Z" fill="#C1994B"/>
<path fill-rule="evenodd" clip-rule="evenodd" d="M284.714 1394.15L284.774 1393.86L284.842 1393.53L284.559 1393.62L284.276 1393.72L284.491 1393.95L284.714 1394.15Z" fill="#D7B46A"/>
<path fill-rule="evenodd" clip-rule="evenodd" d="M284.866 1394.14L284.933 1393.81L284.993 1393.52L284.711 1393.62L284.435 1393.67L284.651 1393.91L284.866 1394.14Z" fill="#D7B46A"/>
<path fill-rule="evenodd" clip-rule="evenodd" d="M285.069 1394.07L285.087 1393.62L285.03 1393.53L284.914 1393.55L284.638 1393.6L284.854 1393.83L285.069 1394.07Z" fill="#D7B46A"/>
<path fill-rule="evenodd" clip-rule="evenodd" d="M282.588 1393.14L282.604 1392.88L282.628 1392.58L282.374 1392.72L282.163 1392.82L282.358 1392.98L282.588 1393.14Z" fill="#D7B46A"/>
<path fill-rule="evenodd" clip-rule="evenodd" d="M282.747 1393.1L282.764 1392.84L282.744 1392.57L282.533 1392.68L282.287 1392.77L282.517 1392.94L282.747 1393.1Z" fill="#D7B46A"/>
<path fill-rule="evenodd" clip-rule="evenodd" d="M282.886 1392.97L282.888 1392.6L282.788 1392.54L282.708 1392.56L282.454 1392.7L282.691 1392.82L282.886 1392.97Z" fill="#D7B46A"/>
<path fill-rule="evenodd" clip-rule="evenodd" d="M275.582 1391.87C277.764 1394.06 280.176 1396.59 282.649 1398.65C282.593 1398.37 282.528 1398.32 282.472 1398.05C280.281 1396.09 277.898 1393.6 275.706 1391.63C275.612 1391.73 275.676 1391.78 275.582 1391.87Z" fill="#3C3C3B" stroke="black" stroke-width="0.184387" stroke-miterlimit="2.6131" stroke-linecap="round" stroke-linejoin="round"/>
<path fill-rule="evenodd" clip-rule="evenodd" d="M280.737 1396.97L282.483 1398.54L282.358 1397.87L280.713 1396.36L280.737 1396.97Z" fill="#C1994B"/>
<path fill-rule="evenodd" clip-rule="evenodd" d="M281.152 1396.61L280.934 1396.75L280.687 1396.85L280.704 1396.59L280.713 1396.36L280.95 1396.49L281.152 1396.61Z" fill="#D7B46A"/>
<path fill-rule="evenodd" clip-rule="evenodd" d="M281.166 1396.72L280.955 1396.83L280.701 1396.96L280.717 1396.7L280.734 1396.44L280.964 1396.61L281.166 1396.72Z" fill="#D7B46A"/>
<path fill-rule="evenodd" clip-rule="evenodd" d="M281.128 1396.9L280.802 1397.02L280.737 1396.97L280.716 1396.89L280.725 1396.67L280.927 1396.79L281.128 1396.9Z" fill="#D7B46A"/>
<path fill-rule="evenodd" clip-rule="evenodd" d="M282.79 1398.15L282.615 1398.27L282.405 1398.37L282.378 1398.14L282.358 1397.87L282.552 1398.03L282.79 1398.15Z" fill="#D7B46A"/>
<path fill-rule="evenodd" clip-rule="evenodd" d="M282.839 1398.28L282.629 1398.38L282.418 1398.49L282.391 1398.26L282.371 1397.99L282.609 1398.11L282.839 1398.28Z" fill="#D7B46A"/>
<path fill-rule="evenodd" clip-rule="evenodd" d="M282.838 1398.46L282.512 1398.58L282.447 1398.53L282.39 1398.45L282.37 1398.18L282.608 1398.3L282.838 1398.46Z" fill="#D7B46A"/>
</g>
<defs>
<filter id="filter0_d_143_392" x="281.189" y="1317.22" width="465.737" height="97.6831" filterUnits="userSpaceOnUse" color-interpolation-filters="sRGB">
<feFlood flood-opacity="0" result="BackgroundImageFix"/>
<feColorMatrix in="SourceAlpha" type="matrix" values="0 0 0 0 0 0 0 0 0 0 0 0 0 0 0 0 0 0 127 0" result="hardAlpha"/>
<feOffset dx="3.68775" dy="3.68775"/>
<feGaussianBlur stdDeviation="2.21265"/>
<feComposite in2="hardAlpha" operator="out"/>
<feColorMatrix type="matrix" values="0 0 0 0 0 0 0 0 0 0 0 0 0 0 0 0 0 0 0.3 0"/>
<feBlend mode="normal" in2="BackgroundImageFix" result="effect1_dropShadow_143_392"/>
<feBlend mode="normal" in="SourceGraphic" in2="effect1_dropShadow_143_392" result="shape"/>
</filter>
<filter id="filter1_d_143_392" x="427.804" y="6.26916" width="61.2167" height="32.0835" filterUnits="userSpaceOnUse" color-interpolation-filters="sRGB">
<feFlood flood-opacity="0" result="BackgroundImageFix"/>
<feColorMatrix in="SourceAlpha" type="matrix" values="0 0 0 0 0 0 0 0 0 0 0 0 0 0 0 0 0 0 127 0" result="hardAlpha"/>
<feOffset dx="1.4751" dy="1.4751"/>
<feGaussianBlur stdDeviation="0.921937"/>
<feComposite in2="hardAlpha" operator="out"/>
<feColorMatrix type="matrix" values="0 0 0 0 0 0 0 0 0 0 0 0 0 0 0 0 0 0 0.2 0"/>
<feBlend mode="normal" in2="BackgroundImageFix" result="effect1_dropShadow_143_392"/>
<feBlend mode="normal" in="SourceGraphic" in2="effect1_dropShadow_143_392" result="shape"/>
</filter>
<filter id="filter2_d_143_392" x="92.2194" y="6.26916" width="61.2166" height="32.0835" filterUnits="userSpaceOnUse" color-interpolation-filters="sRGB">
<feFlood flood-opacity="0" result="BackgroundImageFix"/>
<feColorMatrix in="SourceAlpha" type="matrix" values="0 0 0 0 0 0 0 0 0 0 0 0 0 0 0 0 0 0 127 0" result="hardAlpha"/>
<feOffset dx="1.4751" dy="1.4751"/>
<feGaussianBlur stdDeviation="0.921937"/>
<feComposite in2="hardAlpha" operator="out"/>
<feColorMatrix type="matrix" values="0 0 0 0 0 0 0 0 0 0 0 0 0 0 0 0 0 0 0.2 0"/>
<feBlend mode="normal" in2="BackgroundImageFix" result="effect1_dropShadow_143_392"/>
<feBlend mode="normal" in="SourceGraphic" in2="effect1_dropShadow_143_392" result="shape"/>
</filter>
<filter id="filter3_d_143_392" x="159.336" y="6.26916" width="61.2167" height="32.0835" filterUnits="userSpaceOnUse" color-interpolation-filters="sRGB">
<feFlood flood-opacity="0" result="BackgroundImageFix"/>
<feColorMatrix in="SourceAlpha" type="matrix" values="0 0 0 0 0 0 0 0 0 0 0 0 0 0 0 0 0 0 127 0" result="hardAlpha"/>
<feOffset dx="1.4751" dy="1.4751"/>
<feGaussianBlur stdDeviation="0.921937"/>
<feComposite in2="hardAlpha" operator="out"/>
<feColorMatrix type="matrix" values="0 0 0 0 0 0 0 0 0 0 0 0 0 0 0 0 0 0 0.2 0"/>
<feBlend mode="normal" in2="BackgroundImageFix" result="effect1_dropShadow_143_392"/>
<feBlend mode="normal" in="SourceGraphic" in2="effect1_dropShadow_143_392" result="shape"/>
</filter>
<filter id="filter4_d_143_392" x="226.453" y="6.26916" width="61.2167" height="32.0835" filterUnits="userSpaceOnUse" color-interpolation-filters="sRGB">
<feFlood flood-opacity="0" result="BackgroundImageFix"/>
<feColorMatrix in="SourceAlpha" type="matrix" values="0 0 0 0 0 0 0 0 0 0 0 0 0 0 0 0 0 0 127 0" result="hardAlpha"/>
<feOffset dx="1.4751" dy="1.4751"/>
<feGaussianBlur stdDeviation="0.921937"/>
<feComposite in2="hardAlpha" operator="out"/>
<feColorMatrix type="matrix" values="0 0 0 0 0 0 0 0 0 0 0 0 0 0 0 0 0 0 0.2 0"/>
<feBlend mode="normal" in2="BackgroundImageFix" result="effect1_dropShadow_143_392"/>
<feBlend mode="normal" in="SourceGraphic" in2="effect1_dropShadow_143_392" result="shape"/>
</filter>
<filter id="filter5_d_143_392" x="293.57" y="6.26916" width="61.2166" height="32.0835" filterUnits="userSpaceOnUse" color-interpolation-filters="sRGB">
<feFlood flood-opacity="0" result="BackgroundImageFix"/>
<feColorMatrix in="SourceAlpha" type="matrix" values="0 0 0 0 0 0 0 0 0 0 0 0 0 0 0 0 0 0 127 0" result="hardAlpha"/>
<feOffset dx="1.4751" dy="1.4751"/>
<feGaussianBlur stdDeviation="0.921937"/>
<feComposite in2="hardAlpha" operator="out"/>
<feColorMatrix type="matrix" values="0 0 0 0 0 0 0 0 0 0 0 0 0 0 0 0 0 0 0.2 0"/>
<feBlend mode="normal" in2="BackgroundImageFix" result="effect1_dropShadow_143_392"/>
<feBlend mode="normal" in="SourceGraphic" in2="effect1_dropShadow_143_392" result="shape"/>
</filter>
<filter id="filter6_d_143_392" x="360.687" y="6.26916" width="61.2166" height="32.0835" filterUnits="userSpaceOnUse" color-interpolation-filters="sRGB">
<feFlood flood-opacity="0" result="BackgroundImageFix"/>
<feColorMatrix in="SourceAlpha" type="matrix" values="0 0 0 0 0 0 0 0 0 0 0 0 0 0 0 0 0 0 127 0" result="hardAlpha"/>
<feOffset dx="1.4751" dy="1.4751"/>
<feGaussianBlur stdDeviation="0.921937"/>
<feComposite in2="hardAlpha" operator="out"/>
<feColorMatrix type="matrix" values="0 0 0 0 0 0 0 0 0 0 0 0 0 0 0 0 0 0 0.2 0"/>
<feBlend mode="normal" in2="BackgroundImageFix" result="effect1_dropShadow_143_392"/>
<feBlend mode="normal" in="SourceGraphic" in2="effect1_dropShadow_143_392" result="shape"/>
</filter>
<clipPath id="clip0_143_392">
<rect width="31.5671" height="41.8928" fill="white" transform="translate(58.8774 38.7212) rotate(-86.3134)"/>
</clipPath>
<clipPath id="clip1_143_392">
<rect width="31.5671" height="41.8928" fill="white" transform="matrix(-0.203308 0.979115 0.979115 0.203308 249.418 1362)"/>
</clipPath>
</defs>
</svg>
